<?xml version="1.0" standalone="no"?>
<!DOCTYPE svg PUBLIC "-//W3C//DTD SVG 1.1//EN" "http://www.w3.org/Graphics/SVG/1.1/DTD/svg11.dtd" >
<svg xmlns="http://www.w3.org/2000/svg" xmlns:xlink="http://www.w3.org/1999/xlink" version="1.1">
<metadata></metadata>
<defs>
<font id="laconiclight" horiz-adv-x="530" >
<font-face units-per-em="1000" ascent="750" descent="-250" />
<missing-glyph horiz-adv-x="280" />
<glyph unicode="ff" horiz-adv-x="740" d="M700 420h-190v-420h-60v420h-280v-420h-60v420h-80v60h80v160q0 33 23.5 56.5t56.5 23.5h170v-60h-170q-8 0 -14 -6t-6 -14v-160h280v160q0 33 23.5 56.5t56.5 23.5h170v-60h-170q-8 0 -14 -6t-6 -14v-160h190v-60z" />
<glyph unicode="fi" horiz-adv-x="610" d="M540 0h-60v480h60v-480zM540 660h-350q-8 0 -14 -6t-6 -14v-160h190v-60h-190v-420h-60v420h-80v60h80v160q0 33 23.5 56.5t56.5 23.5h350v-60z" />
<glyph unicode="fl" horiz-adv-x="600" d="M360 420h-190v-420h-60v420h-80v60h80v160q0 33 23.5 56.5t56.5 23.5h170v-60h-170q-8 0 -14 -6t-6 -14v-160h190v-60zM530 0h-60v720h60v-720z" />
<glyph unicode="ffi" horiz-adv-x="950" d="M880 660h-350q-8 0 -14 -6t-6 -14v-160h190v-60h-190v-420h-60v420h-280v-420h-60v420h-80v60h80v160q0 33 23.5 56.5t56.5 23.5h170v-60h-170q-8 0 -14 -6t-6 -14v-160h280v160q0 33 23.5 56.5t56.5 23.5h350v-60zM880 0h-60v480h60v-480z" />
<glyph unicode="ffl" horiz-adv-x="940" d="M700 420h-190v-420h-60v420h-280v-420h-60v420h-80v60h80v160q0 33 23.5 56.5t56.5 23.5h170v-60h-170q-8 0 -14 -6t-6 -14v-160h280v160q0 33 23.5 56.5t56.5 23.5h170v-60h-170q-8 0 -14 -6t-6 -14v-160h190v-60zM870 0h-60v720h60v-720z" />
<glyph unicode=" "  horiz-adv-x="280" />
<glyph unicode="&#x09;" horiz-adv-x="280" />
<glyph unicode="&#xa0;" horiz-adv-x="280" />
<glyph unicode="!" horiz-adv-x="230" d="M160 0h-60v120h60v-120zM160 200h-60v440h60v-440z" />
<glyph unicode="&#x22;" horiz-adv-x="370" d="M130 480h-60v240h60v-240zM300 480h-60v240h60v-240z" />
<glyph unicode="#" horiz-adv-x="500" d="M450 240h-80v-160h-61v160h-119v-160h-60v160h-80v61h80v119h-80v60h80v160h60v-160h119v160h61v-160h80v-60h-80v-119h80v-61zM311 299v123h-123v-123h123z" />
<glyph unicode="$" horiz-adv-x="410" d="M360 240q0 -33 -23.5 -56.5t-56.5 -23.5h-44v-80h-61v80h-109v60h214q8 0 14 6t6 14v110q0 8 -6 14t-14 6h-150q-33 0 -56.5 23.5t-23.5 56.5v110q0 33 23.5 56.5t56.5 23.5h45v80h61v-80h118v-60h-224q-8 0 -14 -6t-6 -14v-110q0 -8 6 -14t14 -6h150q33 0 56.5 -23.5 t23.5 -56.5v-110z" />
<glyph unicode="%" horiz-adv-x="760" d="M710 80q0 -33 -23.5 -56.5t-56.5 -23.5h-120q-33 0 -56.5 23.5t-23.5 56.5v120q0 33 23.5 56.5t56.5 23.5h120q33 0 56.5 -23.5t23.5 -56.5v-120zM650 80v120q0 8 -6 14t-14 6h-120q-8 0 -14 -6t-6 -14v-120q0 -8 6 -14t14 -6h120q8 0 14 6t6 14zM580 640l-331 -640h-69 l332 640h68zM330 440q0 -33 -23.5 -56.5t-56.5 -23.5h-120q-33 0 -56.5 23.5t-23.5 56.5v120q0 33 23.5 56.5t56.5 23.5h120q33 0 56.5 -23.5t23.5 -56.5v-120zM270 440v120q0 8 -6 14t-14 6h-120q-8 0 -14 -6t-6 -14v-120q0 -8 6 -14t14 -6h120q8 0 14 6t6 14z" />
<glyph unicode="&#x26;" horiz-adv-x="669" d="M599 420q0 -33 -23.5 -56.5t-56.5 -23.5h-175v-280h79q41 0 70.5 29.5t29.5 70.5v41h61v-41q0 -67 -47 -113.5t-113 -46.5h-80v-120h-60v120h-74q-66 0 -113 46.5t-47 113.5v80q0 67 47 113.5t113 46.5h74v160q0 33 23.5 56.5t56.5 23.5h155q33 0 56.5 -23.5t23.5 -56.5 v-140zM539 420v140q0 8 -6 14t-14 6h-155q-8 0 -14 -6t-6 -14v-160h175q8 0 14 6t6 14zM284 60v280h-74q-41 0 -70.5 -29.5t-29.5 -70.5v-80q0 -41 29.5 -70.5t70.5 -29.5h74z" />
<glyph unicode="'" horiz-adv-x="200" d="M130 480h-60v240h60v-240z" />
<glyph unicode="(" horiz-adv-x="320" d="M280 -200h-50q-66 0 -113 46.5t-47 113.5v600q0 67 47 113.5t113 46.5h50v-60h-50q-41 0 -70.5 -29.5t-29.5 -70.5v-600q0 -41 29.5 -70t70.5 -29h50v-61z" />
<glyph unicode=")" horiz-adv-x="320" d="M250 -40q0 -67 -47 -113.5t-113 -46.5h-50v60h50q41 0 70.5 29.5t29.5 70.5v600q0 41 -29.5 70t-70.5 29h-50v61h50q66 0 113 -46.5t47 -113.5v-600z" />
<glyph unicode="*" horiz-adv-x="360" d="M330 500l-23 -38l-105 60v-121h-45v121l-104 -60l-23 38l105 61l-105 61l23 38l104 -60v121h45v-121l105 60l23 -38l-105 -61z" />
<glyph unicode="+" horiz-adv-x="540" d="M470 310v-60h-169v-170h-61v170h-170v60h170v170h61v-170h169z" />
<glyph unicode="," horiz-adv-x="240" d="M182 120l-100 -320h-64l101 320h63z" />
<glyph unicode="-" horiz-adv-x="340" d="M290 260h-240v60h240v-60z" />
<glyph unicode="." horiz-adv-x="220" d="M140 0h-60v120h60v-120z" />
<glyph unicode="/" horiz-adv-x="460" d="M430 640l-332 -640h-68l333 640h67z" />
<glyph unicode="0" horiz-adv-x="550" d="M490 160q0 -67 -47 -113.5t-113 -46.5h-110q-66 0 -113 46.5t-47 113.5v320q0 67 47 113.5t113 46.5h110q66 0 113 -46.5t47 -113.5v-320zM429 160v320q0 41 -29 70.5t-70 29.5h-110q-41 0 -70.5 -29.5t-29.5 -70.5v-320q0 -41 29.5 -70.5t70.5 -29.5h110q41 0 70 29.5 t29 70.5z" />
<glyph unicode="1" horiz-adv-x="275" d="M205 0h-60v580h-115v60h175v-640z" />
<glyph unicode="2" horiz-adv-x="520" d="M460 456q0 -67 -47 -113.5t-113 -46.5h-80q-41 0 -70.5 -29.5t-29.5 -70.5v-135h324v-61h-384v196q0 67 47 113.5t113 46.5h80q41 0 70 29.5t29 70.5v24q0 41 -29 70.5t-70 29.5h-229v60h229q66 0 113 -46.5t47 -113.5v-24z" />
<glyph unicode="3" horiz-adv-x="500" d="M440 160q0 -67 -47 -113.5t-113 -46.5h-220v60h220q41 0 70.5 29.5t29.5 70.5v71q0 41 -29.5 70.5t-70.5 29.5h-220v60h220q13 0 19 -1v170q0 8 -6 14t-14 6h-219v60h219q33 0 56.5 -23.5t23.5 -56.5v-190q37 -21 59 -58t22 -81v-71z" />
<glyph unicode="4" horiz-adv-x="540" d="M510 160h-80v-160h-61v160h-359l250 480h68l-219 -419h260v179h61v-179h80v-61z" />
<glyph unicode="5" horiz-adv-x="540" d="M470 160q0 -67 -47 -113.5t-113 -46.5h-239v60h239q41 0 70 29t29 71v60q0 42 -29 71t-70 29h-240v320h360v-60h-299v-200h179q66 0 113 -46.5t47 -113.5v-60z" />
<glyph unicode="6" horiz-adv-x="550" d="M490 160q0 -67 -47 -113.5t-113 -46.5h-110q-66 0 -113 46.5t-47 113.5v320q0 67 47 113.5t113 46.5h234v-60h-234q-41 0 -70.5 -29.5t-29.5 -70.5v-100h210q66 0 113 -46.5t47 -113.5v-60zM429 160v60q0 42 -29 71t-70 29h-209v-160q0 -42 29 -71t70 -29h110q41 0 70 29 t29 71z" />
<glyph unicode="7" horiz-adv-x="490" d="M480 640l-331 -640h-68l300 580h-341v60h440z" />
<glyph unicode="8" horiz-adv-x="580" d="M469 355q61 -48 61 -126v-69q0 -67 -47 -113.5t-113 -46.5h-160q-66 0 -113 46.5t-47 113.5v69q0 79 62 126v205q0 33 23.5 56.5t56.5 23.5h197q33 0 56.5 -23.5t23.5 -56.5v-205zM172 560v-176q20 5 38 5h160q17 0 39 -5v176q0 8 -6 14t-14 6h-197q-8 0 -14 -6t-6 -14z M470 160v69q0 41 -29.5 70.5t-70.5 29.5h-160q-41 0 -70.5 -29.5t-29.5 -70.5v-69q0 -41 29.5 -70.5t70.5 -29.5h160q41 0 70.5 29.5t29.5 70.5z" />
<glyph unicode="9" horiz-adv-x="550" d="M490 160q0 -67 -47 -113.5t-113 -46.5h-234v60h234q41 0 70.5 29.5t29.5 70.5v100h-210q-66 0 -113 46.5t-47 113.5v60q0 67 47 113.5t113 46.5h110q66 0 113 -46.5t47 -113.5v-320zM429 320v160q0 42 -29 71t-70 29h-110q-41 0 -70 -29t-29 -71v-60q0 -42 29 -71t70 -29 h209z" />
<glyph unicode=":" horiz-adv-x="280" d="M170 80h-60v120h60v-120zM170 321h-60v120h60v-120z" />
<glyph unicode=";" horiz-adv-x="280" d="M170 321h-60v120h60v-120zM174 159l-100 -320h-64l101 320h63z" />
<glyph unicode="&#x3c;" horiz-adv-x="430" d="M370 601l-282 -282l282 -282l-43 -43l-325 325l325 325z" />
<glyph unicode="=" horiz-adv-x="540" d="M470 340h-400v60h400v-60zM470 160h-400v60h400v-60z" />
<glyph unicode="&#x3e;" horiz-adv-x="430" d="M428 319l-325 -325l-43 43l282 282l-282 282l43 43z" />
<glyph unicode="?" horiz-adv-x="440" d="M170 0h-60v120h60v-120zM390 400q0 -33 -23.5 -56.5t-56.5 -23.5h-120q-8 0 -14 -6t-6 -14v-100h-60v100q0 33 23.5 56.5t56.5 23.5h120q8 0 14 6t6 14v160q0 8 -6 14t-14 6h-240v60h240q33 0 56.5 -23.5t23.5 -56.5v-160z" />
<glyph unicode="@" horiz-adv-x="770" d="M700 180q0 -33 -23.5 -56.5t-56.5 -23.5h-315q-33 0 -56.5 23.5t-23.5 56.5v140q0 33 23.5 56.5t56.5 23.5h240v-239h75q7 0 13 5t6 14v220q0 41 -29 70.5t-70 29.5h-230q-74 0 -126.5 -53t-52.5 -127v-140q0 -74 52.5 -127t126.5 -53h389v-60h-389q-99 0 -169.5 70.5 t-70.5 169.5v140q0 99 70.5 169.5t169.5 70.5h230q66 0 113 -46.5t47 -113.5v-220zM484 161v179h-179q-8 0 -14 -6t-6 -14v-140q0 -8 6 -13.5t14 -5.5h179z" />
<glyph unicode="A" d="M460 0h-61v260h-268v-260h-61v480q0 67 47 113.5t113 46.5h70q66 0 113 -46.5t47 -113.5v-480zM399 320v160q0 41 -29 70.5t-71 29.5h-68q-42 0 -71 -29.5t-29 -70.5v-160h268z" />
<glyph unicode="B" d="M480 160q0 -67 -47 -113.5t-113 -46.5h-250v640h249q33 0 56.5 -23.5t23.5 -56.5v-190q37 -21 59 -58t22 -81v-71zM339 390v170q0 8 -6 14t-14 6h-189v-189h190q13 0 19 -1zM420 160v71q0 41 -29.5 70.5t-70.5 29.5h-190v-271h190q41 0 70.5 29.5t29.5 70.5z" />
<glyph unicode="C" horiz-adv-x="550" d="M490 0h-190q-99 0 -169.5 70.5t-70.5 169.5v240q0 67 47 113.5t113 46.5h154q48 0 82 -34t34 -82v-84h-60v84q0 23 -16.5 39.5t-39.5 16.5h-154q-41 0 -70.5 -29.5t-29.5 -70.5v-240q0 -74 52.5 -126.5t127.5 -52.5h190v-61z" />
<glyph unicode="D" horiz-adv-x="560" d="M500 240q0 -99 -70.5 -169.5t-169.5 -70.5h-190v640h190q99 0 169.5 -70.5t70.5 -169.5v-160zM440 240v160q0 74 -53 127t-127 53h-130v-519h130q74 0 127 52.5t53 126.5z" />
<glyph unicode="E" horiz-adv-x="470" d="M410 0h-260q-33 0 -56.5 23.5t-23.5 56.5v560h340v-60h-280v-200h280v-60h-280v-240q0 -8 6 -13.5t14 -5.5h260v-61z" />
<glyph unicode="F" horiz-adv-x="460" d="M410 320h-280v-320h-60v640h340v-60h-280v-200h280v-60z" />
<glyph unicode="G" horiz-adv-x="560" d="M490 0h-270q-66 0 -113 46.5t-47 113.5v240q0 99 70.5 169.5t169.5 70.5h190v-61h-190q-75 0 -127.5 -52.5t-52.5 -126.5v-240q0 -41 29.5 -70.5t70.5 -29.5h210v260h60v-320z" />
<glyph unicode="H" d="M460 0h-60v320h-270v-320h-60v640h60v-260h270v260h60v-640z" />
<glyph unicode="I" horiz-adv-x="205" d="M133 640v-640h-61v640h61z" />
<glyph unicode="J" horiz-adv-x="360" d="M290 160q0 -67 -47 -113.5t-113 -46.5h-100v60h100q41 0 70.5 29.5t29.5 70.5v480h60v-480z" />
<glyph unicode="K" d="M488 640l-166 -260q59 -8 98.5 -53.5t39.5 -105.5v-221h-60v221q0 41 -29.5 70.5t-70.5 29.5h-170v-321h-60v640h60v-259h122l164 259h72z" />
<glyph unicode="L" horiz-adv-x="400" d="M370 0h-300v640h61v-579h239v-61z" />
<glyph unicode="M" horiz-adv-x="850" d="M780 0h-61v480q0 41 -29 70.5t-71 29.5h-164v-580h-60v580h-264v-580h-61v640h550q66 0 113 -46.5t47 -113.5v-480z" />
<glyph unicode="N" horiz-adv-x="570" d="M500 0h-36q-36 0 -55 34l-279 509v-543h-60v640h36q37 0 56 -34l278 -509v543h60v-640z" />
<glyph unicode="O" horiz-adv-x="550" d="M490 160q0 -67 -47 -113.5t-113 -46.5h-110q-66 0 -113 46.5t-47 113.5v320q0 67 47 113.5t113 46.5h110q66 0 113 -46.5t47 -113.5v-320zM429 160v320q0 41 -29 70.5t-70 29.5h-110q-41 0 -70.5 -29.5t-29.5 -70.5v-320q0 -41 29.5 -70.5t70.5 -29.5h110q41 0 70 29.5 t29 70.5z" />
<glyph unicode="P" horiz-adv-x="510" d="M460 400q0 -67 -47 -113.5t-113 -46.5h-170v-240h-60v640h230q66 0 113 -46.5t47 -113.5v-80zM400 400v80q0 41 -29.5 70.5t-70.5 29.5h-170v-280h170q41 0 70.5 29.5t29.5 70.5z" />
<glyph unicode="Q" horiz-adv-x="550" d="M490 160q0 -67 -47 -113.5t-113 -46.5h-25v-200h-60v200h-25q-66 0 -113 46.5t-47 113.5v320q0 67 47 113.5t113 46.5h110q66 0 113 -46.5t47 -113.5v-320zM429 160v320q0 41 -29 70.5t-70 29.5h-110q-41 0 -70.5 -29.5t-29.5 -70.5v-320q0 -41 29.5 -70.5t70.5 -29.5 h110q41 0 70 29.5t29 70.5z" />
<glyph unicode="R" d="M480 0h-60v231q0 41 -29.5 70.5t-70.5 29.5h-190v-331h-60v640h251q33 0 56.5 -23.5t23.5 -56.5l-2 -190q37 -21 59 -58t22 -81v-231zM339 390l2 170q0 8 -6 14t-14 6h-191v-189h190q13 0 19 -1z" />
<glyph unicode="S" horiz-adv-x="500" d="M440 116q0 -48 -34 -82t-82 -34h-244v61h244q23 0 39 16t16 39v126q0 22 -16.5 38.5t-38.5 16.5h-148q-48 0 -82 34t-34 82v111q0 48 34 82t82 34h254v-60h-254q-23 0 -39.5 -16.5t-16.5 -39.5v-111q0 -23 16.5 -39.5t39.5 -16.5h148q48 0 82 -34t34 -82v-125z" />
<glyph unicode="T" horiz-adv-x="460" d="M430 580h-170v-580h-60v580h-170v60h400v-60z" />
<glyph unicode="U" d="M460 160q0 -67 -47 -113.5t-113 -46.5h-70q-66 0 -113 46.5t-47 113.5v480h60v-480q0 -41 29.5 -70.5t70.5 -29.5h70q41 0 70.5 29.5t29.5 70.5v480h60v-480z" />
<glyph unicode="V" d="M460 240q0 -99 -70.5 -169.5t-169.5 -70.5h-150v640h61v-580l89 1q74 0 126.5 52.5t52.5 126.5v400h61v-400z" />
<glyph unicode="W" horiz-adv-x="850" d="M780 160q0 -67 -47 -113.5t-113 -46.5h-390q-66 0 -113 46.5t-47 113.5v480h61v-480q0 -41 29 -70.5t71 -29.5h164v580h60v-580h164q42 0 71 29.5t29 70.5v480h61v-480z" />
<glyph unicode="X" d="M460 0h-60v235q0 35 -25 60t-60 25h-100q-35 0 -60 -25t-25 -60v-235h-60v231q0 77 62 119q-62 42 -62 119v171h60v-176q0 -35 25 -59.5t60 -24.5h100q35 0 60 24.5t25 59.5v176h60v-171q0 -76 -63 -119q63 -43 63 -119v-231z" />
<glyph unicode="Y" horiz-adv-x="500" d="M450 640v-220q0 -67 -47 -113.5t-113 -46.5h-9v-260h-60v260h-11q-66 0 -113 46.5t-47 113.5v220h61v-220q0 -41 29 -70.5t71 -29.5h78q42 0 71 29.5t29 70.5v220h61z" />
<glyph unicode="Z" horiz-adv-x="580" d="M540 640l-387 -579h329v-61h-442l388 580h-330v60h442z" />
<glyph unicode="[" horiz-adv-x="320" d="M270 -201h-200v921h200v-60h-140v-801h140v-60z" />
<glyph unicode="\" horiz-adv-x="460" d="M429 0h-68l-330 640h67z" />
<glyph unicode="]" horiz-adv-x="320" d="M250 -200h-200v60h140v800h-140v60h200v-920z" />
<glyph unicode="^" horiz-adv-x="445" d="M415 400h-72l-121 182l-120 -182h-72l159 240h67z" />
<glyph unicode="_" horiz-adv-x="540" d="M550 -160h-560v61h560v-61z" />
<glyph unicode="`" horiz-adv-x="380" d="M254 560h-61l-101 160h61z" />
<glyph unicode="a" d="M460 0h-320q-33 0 -56.5 23.5t-23.5 56.5v130q0 33 23.5 56.5t56.5 23.5h260v110q0 8 -6 14t-14 6h-298v60h298q33 0 56.5 -23.5t23.5 -56.5v-400zM400 61v169h-260q-8 0 -14 -6t-6 -14v-130q0 -8 6 -13.5t14 -5.5h260z" />
<glyph unicode="b" horiz-adv-x="520" d="M460 160q0 -67 -47 -113.5t-113 -46.5h-230v720h60v-240h170q66 0 113 -46.5t47 -113.5v-160zM399 160v160q0 41 -29 70.5t-70 29.5h-170v-360h170q41 0 70 29.5t29 70.5z" />
<glyph unicode="c" horiz-adv-x="500" d="M434 0h-214q-66 0 -113 46.5t-47 113.5v160q0 67 47 113.5t113 46.5h140q33 0 56.5 -23.5t23.5 -56.5v-80h-60v80q0 8 -6 14t-14 6h-140q-41 0 -70 -29.5t-29 -70.5v-160q0 -41 29 -70.5t70 -29.5h214v-60z" />
<glyph unicode="d" horiz-adv-x="520" d="M450 0h-230q-66 0 -113 46.5t-47 113.5v160q0 67 47 113.5t113 46.5h170v240h60v-720zM390 60v360h-170q-41 0 -70 -29.5t-29 -70.5v-160q0 -41 29 -70.5t70 -29.5h170z" />
<glyph unicode="e" horiz-adv-x="510" d="M450 210h-329v-50q0 -41 29 -70.5t70 -29.5h203v-60h-203q-66 0 -113 46.5t-47 113.5v160q0 67 47 113.5t113 46.5h70q66 0 113 -46.5t47 -113.5v-110zM389 270v50q0 41 -29 70.5t-70 29.5h-70q-41 0 -70 -29.5t-29 -70.5v-50h268z" />
<glyph unicode="f" horiz-adv-x="400" d="M360 420h-190v-420h-60v420h-80v60h80v160q0 33 23.5 56.5t56.5 23.5h170v-60h-170q-8 0 -14 -6t-6 -14v-160h190v-60z" />
<glyph unicode="g" horiz-adv-x="520" d="M450 -120q0 -33 -23.5 -56.5t-56.5 -23.5h-250v60h250q8 0 14 6t6 14v120h-170q-66 0 -113 46.5t-47 113.5v160q0 67 47 113.5t113 46.5h230v-600zM390 60v360h-170q-41 0 -70 -29.5t-29 -70.5v-160q0 -41 29 -70.5t70 -29.5h170z" />
<glyph unicode="h" d="M300 480q66 0 113 -46.5t47 -113.5v-320h-61v320q0 41 -29 70.5t-70 29.5h-170v-420h-60v720h60v-240h170z" />
<glyph unicode="i" horiz-adv-x="200" d="M130 0h-60v480h60v-480zM130 600h-60v120h60v-120z" />
<glyph unicode="j" horiz-adv-x="200" d="M130 600h-60v120h60v-120zM130 -120q0 -33 -23.5 -56.5t-56.5 -23.5h-44v60h44q8 0 14 6t6 14v600h60v-600z" />
<glyph unicode="k" horiz-adv-x="510" d="M337 282q48 -17 78 -58.5t30 -93.5v-130h-61v130q0 41 -29 70.5t-70 29.5h-155v-230h-60v720h60v-430h141l118 190h71z" />
<glyph unicode="l" horiz-adv-x="200" d="M130 0h-60v720h60v-720z" />
<glyph unicode="m" horiz-adv-x="780" d="M550 480q66 0 113 -46.5t47 -113.5v-320h-61v320q0 41 -29 70.5t-70 29.5h-129v-420h-61v420h-229v-420h-61v480h480z" />
<glyph unicode="n" d="M460 0h-61v320q0 41 -29 70.5t-70 29.5h-169v-420h-61v480h230q66 0 113 -46.5t47 -113.5v-320z" />
<glyph unicode="o" horiz-adv-x="510" d="M450 160q0 -67 -47 -113.5t-113 -46.5h-70q-66 0 -113 46.5t-47 113.5v160q0 67 47 113.5t113 46.5h70q66 0 113 -46.5t47 -113.5v-160zM389 160v160q0 41 -29 70.5t-70 29.5h-70q-41 0 -70 -29.5t-29 -70.5v-160q0 -41 29 -70.5t70 -29.5h70q41 0 70 29.5t29 70.5z" />
<glyph unicode="p" horiz-adv-x="520" d="M460 160q0 -67 -47 -113.5t-113 -46.5h-170v-200h-60v680h230q66 0 113 -46.5t47 -113.5v-160zM399 160v160q0 41 -29 70.5t-70 29.5h-170v-360h170q41 0 70 29.5t29 70.5z" />
<glyph unicode="q" horiz-adv-x="520" d="M450 -200h-60v200h-170q-66 0 -113 46.5t-47 113.5v160q0 67 47 113.5t113 46.5h70q66 0 113 -46.5t47 -113.5v-520zM390 60v260q0 41 -29 70.5t-70 29.5h-71q-41 0 -70 -29.5t-29 -70.5v-160q0 -41 29 -70.5t70 -29.5h170z" />
<glyph unicode="r" horiz-adv-x="440" d="M410 280h-60v120q0 8 -6 14t-14 6h-200v-420h-60v480h260q33 0 56.5 -23.5t23.5 -56.5v-120z" />
<glyph unicode="s" horiz-adv-x="460" d="M400 80q0 -33 -23.5 -56.5t-56.5 -23.5h-244v60h244q8 0 14 6t6 14v120q0 8 -6 14t-14 6h-180q-33 0 -56.5 23.5t-23.5 56.5v100q0 33 23.5 56.5t56.5 23.5h253v-60h-253q-8 0 -14 -6t-6 -14v-100q0 -8 6 -14t14 -6h180q33 0 56.5 -23.5t23.5 -56.5v-120z" />
<glyph unicode="t" horiz-adv-x="420" d="M380 0h-180q-33 0 -56.5 23.5t-23.5 56.5v340h-80v60h80v160h60v-160h200v-60h-200v-340q0 -8 6 -14t14 -6h180v-60z" />
<glyph unicode="u" d="M300 0h-70q-66 0 -113 46.5t-47 113.5v320h61v-320q0 -41 29 -70.5t70 -29.5h70q41 0 70 29.5t29 70.5v320h61v-320q0 -67 -47 -113.5t-113 -46.5z" />
<glyph unicode="v" d="M460 160q0 -67 -47 -113.5t-113 -46.5h-230v480h61v-420h169q41 0 70 29.5t29 70.5v320h61v-320z" />
<glyph unicode="w" horiz-adv-x="780" d="M710 160q0 -67 -47 -113.5t-113 -46.5h-320q-66 0 -113 46.5t-47 113.5v320h61v-320q0 -41 29 -70.5t70 -29.5h130v420h61v-420h129q41 0 70 29.5t29 70.5v320h61v-320z" />
<glyph unicode="x" d="M460 0h-60v145q0 35 -25 60t-60 25h-100q-35 0 -60 -25t-25 -60v-145h-60v141q0 77 62 119q-62 42 -62 119v101h60v-106q0 -35 25 -59.5t60 -24.5h100q35 0 60 24.5t25 59.5v106h60v-101q0 -76 -63 -119q63 -43 63 -119v-141z" />
<glyph unicode="y" d="M460 -120q0 -33 -23.5 -56.5t-56.5 -23.5h-44v60h44q8 0 14 6t6 14v120h-170q-66 0 -113 46.5t-47 113.5v320h61v-320q0 -41 29 -70.5t70 -29.5h169v420h61v-600z" />
<glyph unicode="z" horiz-adv-x="510" d="M470 480l-310 -420h278v-60h-398l310 420h-278v60h398z" />
<glyph unicode="{" horiz-adv-x="290" d="M240 -200q-66 0 -113 46.5t-47 113.5v220l-80 80l80 80v220q0 67 47 113.5t113 46.5v-60q-41 0 -70.5 -29.5t-29.5 -70.5v-245l-55 -55l55 -55v-245q0 -41 29.5 -70.5t70.5 -29.5v-60z" />
<glyph unicode="|" horiz-adv-x="280" d="M170 -200h-60v920h60v-920z" />
<glyph unicode="}" horiz-adv-x="290" d="M290 260l-80 -80v-220q0 -67 -47 -113.5t-113 -46.5v60q41 0 70.5 29.5t29.5 70.5v245l55 55l-55 55v245q0 41 -29.5 70.5t-70.5 29.5v60q66 0 113 -46.5t47 -113.5v-220z" />
<glyph unicode="~" horiz-adv-x="500" d="M450 340h-150q-8 0 -14 -6t-6 -14q0 -33 -23.5 -56.5t-56.5 -23.5h-150v60h150q8 0 14 6t6 14q0 33 23.5 56.5t56.5 23.5h150v-60z" />
<glyph unicode="&#xa1;" horiz-adv-x="230" d="M130 -160h-60v440h60v-440zM130 360h-60v120h60v-120z" />
<glyph unicode="&#xa2;" horiz-adv-x="400" d="M350 81h-79v-81h-61v81q-66 0 -113 46.5t-47 113.5v79q0 67 47 113.5t113 46.5v80h61v-80h79v-60h-140q-41 0 -70 -29.5t-29 -70.5v-79q0 -41 29 -70.5t70 -29.5h140v-60z" />
<glyph unicode="&#xa3;" horiz-adv-x="460" d="M410 160h-359v60h13q28 0 47.5 19.5t19.5 47.5v92h-81v61h81v40q0 67 47 113.5t113 46.5h80v-60h-80q-41 0 -70 -29.5t-29 -70.5v-40h178v-61h-178v-96q0 -32 -23 -63h241v-60z" />
<glyph unicode="&#xa4;" horiz-adv-x="540" d="M424 438v-215l66 -67l-42 -42l-67 66h-221l-67 -66l-43 42l67 67v215l-67 66l43 43l67 -67h221l67 67l42 -43zM363 241v179h-186v-179h186z" />
<glyph unicode="&#xa5;" horiz-adv-x="510" d="M480 640l-160 -240h118v-60h-153v-100h153v-60h-153v-180h-60v180h-152v60h152v100h-152v60h117l-160 240h72l153 -229l153 229h72z" />
<glyph unicode="&#xa6;" horiz-adv-x="200" d="M130 640v-360h-60v360h60zM130 160v-360h-60v360h60z" />
<glyph unicode="&#xa7;" horiz-adv-x="440" d="M370 0q0 -33 -23.5 -56.5t-56.5 -23.5h-220v60h220q8 0 14 6t6 14v161h-160q-33 0 -56.5 23.5t-23.5 56.5v399q0 33 23.5 56.5t56.5 23.5h220v-60h-220q-8 0 -14 -6t-6 -14v-161h160q33 0 56.5 -23.5t23.5 -56.5v-399zM310 221v178q0 8 -6 14t-14 6h-160v-178q0 -8 6 -14 t14 -6h160z" />
<glyph unicode="&#xa8;" horiz-adv-x="380" d="M141 583h-58v57h58v-57zM297 583h-58v57h58v-57z" />
<glyph unicode="&#xa9;" horiz-adv-x="760" d="M690 240q0 -99 -70 -169.5t-170 -70.5h-140q-100 0 -170 70.5t-70 169.5v160q0 100 70 170t170 70h140q100 0 170 -70t70 -170v-160zM631 222v197q0 68 -50.5 114.5t-123.5 46.5h-154q-73 0 -123.5 -46.5t-50.5 -114.5v-197q0 -68 50.5 -115t123.5 -47h154q73 0 123.5 47 t50.5 115zM510 160h-190q-33 0 -56.5 23.5t-23.5 56.5v160q0 33 23 56.5t57 23.5h190v-62h-209v-196h209v-62z" />
<glyph unicode="&#xaa;" horiz-adv-x="360" d="M320 400h-227q-22 0 -37.5 15.5t-15.5 37.5v89q0 22 15.5 37.5t37.5 15.5h178v77h-216v48h208q23 0 40 -17t17 -40v-263zM271 449v97h-181v-97h181z" />
<glyph unicode="&#xab;" horiz-adv-x="600" d="M550 97l-43 -41l-240 240l240 240l43 -42l-198 -198zM283 97l-43 -41l-240 240l240 240l43 -42l-198 -198z" />
<glyph unicode="&#xac;" horiz-adv-x="540" d="M470 120h-60v140h-340v60h400v-200z" />
<glyph unicode="&#xae;" horiz-adv-x="550" d="M495 533q0 -84 -54 -144v89q0 23 -15.5 41t-37.5 23v87q0 28 -19.5 47t-46.5 19h-192v-326h61v111h188v-111h43q-62 -56 -147 -56q-91 0 -155 64.5t-64 155.5t64 155t155 64t155.5 -64t64.5 -155zM324 541h-133v92h133v-92z" />
<glyph unicode="&#xaf;" horiz-adv-x="380" d="M310 585h-240v55h240v-55z" />
<glyph unicode="&#xb0;" horiz-adv-x="340" d="M310 440q0 -33 -23 -56.5t-57 -23.5h-120q-33 0 -56.5 23.5t-23.5 56.5v120q0 33 23.5 56.5t56.5 23.5h120q34 0 57 -23.5t23 -56.5v-120zM249 421v158h-158v-158h158z" />
<glyph unicode="&#xb1;" horiz-adv-x="540" d="M470 390v-60h-169v-170h-61v170h-170v60h170v170h61v-170h169zM470 0h-400v60h400v-60z" />
<glyph unicode="&#xb2;" horiz-adv-x="410" d="M360 491q0 -31 -22.5 -53.5t-53.5 -22.5h-158q-7 0 -13 -5.5t-6 -12.5v-100h253v-57h-310v157q0 31 22.5 53.5t53.5 22.5h158q7 0 13 5.5t6 12.5v73q0 8 -5.5 13.5t-13.5 5.5h-219v57h219q32 0 54 -22t22 -54v-73z" />
<glyph unicode="&#xb3;" horiz-adv-x="420" d="M370 316q0 -32 -22 -54t-54 -22h-244v57h244q19 0 19 19v88q0 7 -5.5 12.5t-13.5 5.5h-244v58h222v102h-222v58h279v-169q41 -21 41 -67v-88z" />
<glyph unicode="&#xb4;" horiz-adv-x="380" d="M284 720l-101 -160h-60l101 160h60z" />
<glyph unicode="&#xb5;" horiz-adv-x="600" d="M540 0q-81 0 -129 65q-48 -65 -129 -65h-22q-56 0 -99 35v-235h-61v680h61v-320q0 -41 29 -70.5t70 -29.5h22q41 0 70 29.5t29 70.5v320h60v-320q0 -41 29 -70.5t70 -29.5v-60z" />
<glyph unicode="&#xb6;" horiz-adv-x="500" d="M430 160h-60v419h-119v-419h-61v240h-60q-33 0 -56.5 23.5t-23.5 56.5v80q0 33 23.5 56.5t56.5 23.5h300v-480z" />
<glyph unicode="&#xb7;" horiz-adv-x="240" d="M150 250h-60v120h60v-120z" />
<glyph unicode="&#xb8;" horiz-adv-x="380" d="M250 -120q0 -33 -23.5 -56.5t-56.5 -23.5h-80v55h80q11 0 18 7t7 18v130h55v-130z" />
<glyph unicode="&#xb9;" horiz-adv-x="220" d="M160 240h-57v343h-83v57h140v-400z" />
<glyph unicode="&#xba;" horiz-adv-x="370" d="M330 507q0 -44 -31.5 -75.5t-75.5 -31.5h-76q-44 0 -75.5 31.5t-31.5 75.5v106q0 45 31.5 76t75.5 31h76q44 0 75.5 -31t31.5 -76v-106zM281 502v115q0 23 -16.5 38.5t-38.5 15.5h-81q-22 0 -39 -15.5t-17 -38.5v-115q0 -22 17 -38t39 -16h81q22 0 38.5 16t16.5 38z" />
<glyph unicode="&#xbb;" horiz-adv-x="600" d="M600 296l-240 -240l-43 41l198 199l-198 198l43 42zM333 296l-240 -240l-43 41l198 199l-198 198l43 42z" />
<glyph unicode="&#xbc;" horiz-adv-x="810" d="M555 640l-332 -640h-68l333 640h67zM162 240h-57v343h-85v57h142v-400zM780 88h-74v-88h-57v88h-236l160 312h64l-130 -255h142v95h57v-95h74v-57z" />
<glyph unicode="&#xbd;" horiz-adv-x="870" d="M820 251q0 -31 -22.5 -53.5t-53.5 -22.5h-158q-7 0 -13 -5.5t-6 -12.5v-100h253v-57h-310v157q0 31 22.5 53.5t53.5 22.5h158q7 0 13 5.5t6 12.5v73q0 8 -5.5 13.5t-13.5 5.5h-219v57h219q32 0 54 -22t22 -54v-73zM555 640l-332 -640h-68l333 640h67zM162 240h-57v343 h-85v57h142v-400z" />
<glyph unicode="&#xbe;" horiz-adv-x="970" d="M940 88h-74v-88h-57v88h-236l160 312h64l-130 -255h142v95h57v-95h74v-57zM715 640l-332 -640h-68l333 640h67zM374 316q0 -32 -22 -54t-54 -22h-248v57h248q19 0 19 19v88q0 7 -5.5 12.5t-13.5 5.5h-248v58h226v102h-226v58h283v-169q41 -21 41 -67v-88z" />
<glyph unicode="&#xbf;" horiz-adv-x="440" d="M370 -160h-240q-33 0 -56.5 23.5t-23.5 56.5v160q0 33 23.5 56.5t56.5 23.5h120q8 0 14 6t6 14v100h60v-100q0 -33 -23.5 -56.5t-56.5 -23.5h-120q-8 0 -14 -6t-6 -14v-160q0 -8 6 -14t14 -6h240v-60zM330 360h-60v120h60v-120z" />
<glyph unicode="&#xc0;" d="M460 0h-61v260h-268v-260h-61v480q0 67 47 113.5t113 46.5h70q66 0 113 -46.5t47 -113.5v-480zM399 320v160q0 41 -29 70.5t-71 29.5h-68q-42 0 -71 -29.5t-29 -70.5v-160h268zM307 720h-60l-101 160h60z" />
<glyph unicode="&#xc1;" d="M460 0h-61v260h-268v-260h-61v480q0 67 47 113.5t113 46.5h70q66 0 113 -46.5t47 -113.5v-480zM399 320v160q0 41 -29 70.5t-71 29.5h-68q-42 0 -71 -29.5t-29 -70.5v-160h268zM385 880l-101 -160h-60l101 160h60z" />
<glyph unicode="&#xc2;" d="M397 720h-60l-71 113l-71 -113h-60l101 160h59zM460 0h-61v260h-268v-260h-61v480q0 67 47 113.5t113 46.5h70q66 0 113 -46.5t47 -113.5v-480zM399 320v160q0 41 -29 70.5t-71 29.5h-68q-42 0 -71 -29.5t-29 -70.5v-160h268z" />
<glyph unicode="&#xc3;" d="M460 0h-61v260h-268v-260h-61v480q0 67 47 113.5t113 46.5h70q66 0 113 -46.5t47 -113.5v-480zM399 320v160q0 41 -29 70.5t-71 29.5h-68q-42 0 -71 -29.5t-29 -70.5v-160h268zM415 720h-97q-33 0 -56.5 23.5t-23.5 56.5q0 8 -6 14t-14 6h-103v56h99q33 0 56.5 -24 t23.5 -57q0 -8 6 -14t14 -6h101v-55z" />
<glyph unicode="&#xc4;" d="M236 743h-58v57h58v-57zM392 743h-58v57h58v-57zM460 0h-61v260h-268v-260h-61v480q0 67 47 113.5t113 46.5h70q66 0 113 -46.5t47 -113.5v-480zM399 320v160q0 41 -29 70.5t-71 29.5h-68q-42 0 -71 -29.5t-29 -70.5v-160h268z" />
<glyph unicode="&#xc5;" d="M460 0h-61v260h-268v-260h-61v480q0 89 75 135v105q0 33 23.5 56.5t56.5 23.5h80q33 0 56.5 -23.5t23.5 -56.5v-105q34 -22 54.5 -57.5t20.5 -77.5v-480zM399 320v160q0 41 -29 70.5t-71 29.5h-68q-42 0 -71 -29.5t-29 -70.5v-160h268zM334 640v109h-138v-109h138z" />
<glyph unicode="&#xc6;" horiz-adv-x="800" d="M738 0h-178q-66 0 -113 46.5t-47 113.5v100h-270v-260h-60v480q0 67 47 113.5t113 46.5h508v-59h-278v-201h280v-60h-280v-160q0 -41 29.5 -70.5t70.5 -29.5h178v-60zM400 320v260h-170q-41 0 -70.5 -29.5t-29.5 -70.5v-160h270z" />
<glyph unicode="&#xc7;" horiz-adv-x="550" d="M490 0h-100v-120q0 -33 -23.5 -56.5t-56.5 -23.5h-80v55h80q11 0 18 7t7 18v120h-35q-99 0 -169.5 70.5t-70.5 169.5v240q0 67 47 113.5t113 46.5h154q48 0 82 -34t34 -82v-84h-60v84q0 23 -16.5 39.5t-39.5 16.5h-154q-41 0 -70.5 -29.5t-29.5 -70.5v-240 q0 -74 52.5 -126.5t127.5 -52.5h190v-61z" />
<glyph unicode="&#xc8;" horiz-adv-x="470" d="M410 0h-260q-33 0 -56.5 23.5t-23.5 56.5v560h340v-60h-280v-200h280v-60h-280v-240q0 -8 6 -13.5t14 -5.5h260v-61zM307 720h-60l-101 160h60z" />
<glyph unicode="&#xc9;" horiz-adv-x="470" d="M410 0h-260q-33 0 -56.5 23.5t-23.5 56.5v560h340v-60h-280v-200h280v-60h-280v-240q0 -8 6 -13.5t14 -5.5h260v-61zM377 880l-101 -160h-60l101 160h60z" />
<glyph unicode="&#xca;" horiz-adv-x="470" d="M410 0h-260q-33 0 -56.5 23.5t-23.5 56.5v560h340v-60h-280v-200h280v-60h-280v-240q0 -8 6 -13.5t14 -5.5h260v-61zM377 720h-60l-71 113l-71 -113h-60l101 160h59z" />
<glyph unicode="&#xcb;" horiz-adv-x="470" d="M410 0h-260q-33 0 -56.5 23.5t-23.5 56.5v560h340v-60h-280v-200h280v-60h-280v-240q0 -8 6 -13.5t14 -5.5h260v-61zM196 743h-58v57h58v-57zM352 743h-58v57h58v-57z" />
<glyph unicode="&#xcc;" horiz-adv-x="205" d="M133 640v-640h-61v640h61zM129 720h-60l-101 160h60z" />
<glyph unicode="&#xcd;" horiz-adv-x="205" d="M133 640v-640h-61v640h61zM232 880l-101 -160h-60l101 160h60z" />
<glyph unicode="&#xce;" horiz-adv-x="205" d="M133 640v-640h-61v640h61zM234 720h-60l-71 113l-71 -113h-60l101 160h59z" />
<glyph unicode="&#xcf;" horiz-adv-x="205" d="M133 640v-640h-61v640h61zM53 743h-58v57h58v-57zM210 743h-58v57h58v-57z" />
<glyph unicode="&#xd0;" horiz-adv-x="600" d="M540 240q0 -99 -70.5 -169.5t-169.5 -70.5h-190v320h-100v60h100v260h190q99 0 169.5 -70.5t70.5 -169.5v-160zM324 320h-154v-259h130q74 0 127 52.5t53 126.5v160q0 74 -53 127t-127 53h-130v-200h154v-60z" />
<glyph unicode="&#xd1;" horiz-adv-x="570" d="M500 0h-36q-36 0 -55 34l-279 509v-543h-60v640h36q37 0 56 -34l278 -509v543h60v-640zM434 720h-97q-33 0 -56.5 23.5t-23.5 56.5q0 8 -6 14t-14 6h-103v56h99q33 0 56.5 -24t23.5 -57q0 -8 6 -14t14 -6h101v-55z" />
<glyph unicode="&#xd2;" horiz-adv-x="550" d="M490 160q0 -67 -47 -113.5t-113 -46.5h-110q-66 0 -113 46.5t-47 113.5v320q0 67 47 113.5t113 46.5h110q66 0 113 -46.5t47 -113.5v-320zM429 160v320q0 41 -29 70.5t-70 29.5h-110q-41 0 -70.5 -29.5t-29.5 -70.5v-320q0 -41 29.5 -70.5t70.5 -29.5h110q41 0 70 29.5 t29 70.5zM307 720h-60l-101 160h60z" />
<glyph unicode="&#xd3;" horiz-adv-x="550" d="M490 160q0 -67 -47 -113.5t-113 -46.5h-110q-66 0 -113 46.5t-47 113.5v320q0 67 47 113.5t113 46.5h110q66 0 113 -46.5t47 -113.5v-320zM429 160v320q0 41 -29 70.5t-70 29.5h-110q-41 0 -70.5 -29.5t-29.5 -70.5v-320q0 -41 29.5 -70.5t70.5 -29.5h110q41 0 70 29.5 t29 70.5zM395 880l-101 -160h-60l101 160h60z" />
<glyph unicode="&#xd4;" horiz-adv-x="550" d="M490 160q0 -67 -47 -113.5t-113 -46.5h-110q-66 0 -113 46.5t-47 113.5v320q0 67 47 113.5t113 46.5h110q66 0 113 -46.5t47 -113.5v-320zM429 160v320q0 41 -29 70.5t-70 29.5h-110q-41 0 -70.5 -29.5t-29.5 -70.5v-320q0 -41 29.5 -70.5t70.5 -29.5h110q41 0 70 29.5 t29 70.5zM407 720h-60l-71 113l-71 -113h-60l101 160h59z" />
<glyph unicode="&#xd5;" horiz-adv-x="550" d="M425 720h-97q-33 0 -56.5 23.5t-23.5 56.5q0 8 -6 14t-14 6h-103v56h99q33 0 56.5 -24t23.5 -57q0 -8 6 -14t14 -6h101v-55zM490 160q0 -67 -47 -113.5t-113 -46.5h-110q-66 0 -113 46.5t-47 113.5v320q0 67 47 113.5t113 46.5h110q66 0 113 -46.5t47 -113.5v-320z M429 160v320q0 41 -29 70.5t-70 29.5h-110q-41 0 -70.5 -29.5t-29.5 -70.5v-320q0 -41 29.5 -70.5t70.5 -29.5h110q41 0 70 29.5t29 70.5z" />
<glyph unicode="&#xd6;" horiz-adv-x="550" d="M490 160q0 -67 -47 -113.5t-113 -46.5h-110q-66 0 -113 46.5t-47 113.5v320q0 67 47 113.5t113 46.5h110q66 0 113 -46.5t47 -113.5v-320zM429 160v320q0 41 -29 70.5t-70 29.5h-110q-41 0 -70.5 -29.5t-29.5 -70.5v-320q0 -41 29.5 -70.5t70.5 -29.5h110q41 0 70 29.5 t29 70.5zM226 743h-58v57h58v-57zM382 743h-58v57h58v-57z" />
<glyph unicode="&#xd7;" horiz-adv-x="510" d="M460 111l-42 -42l-163 163l-163 -163l-42 42l163 164l-163 163l42 42l163 -163l163 163l42 -42l-163 -163z" />
<glyph unicode="&#xd8;" horiz-adv-x="550" d="M510 618l-40 -60q20 -35 20 -78v-320q0 -67 -47 -113.5t-113 -46.5h-110q-56 0 -99 35l-31 -46l-50 33l40 60q-20 35 -20 78v320q0 67 47 113.5t113 46.5h110q55 0 100 -34l30 45zM120 160q0 -2 0.5 -8t0.5 -8l275 411q-28 25 -66 25h-110q-41 0 -70.5 -29.5t-29.5 -70.5 v-320zM429 480q0 10 -1 15l-274 -410q30 -25 66 -25h110q41 0 70 29.5t29 70.5v320z" />
<glyph unicode="&#xd9;" d="M460 160q0 -67 -47 -113.5t-113 -46.5h-70q-66 0 -113 46.5t-47 113.5v480h60v-480q0 -41 29.5 -70.5t70.5 -29.5h70q41 0 70.5 29.5t29.5 70.5v480h60v-480zM307 720h-60l-101 160h60z" />
<glyph unicode="&#xda;" d="M460 160q0 -67 -47 -113.5t-113 -46.5h-70q-66 0 -113 46.5t-47 113.5v480h60v-480q0 -41 29.5 -70.5t70.5 -29.5h70q41 0 70.5 29.5t29.5 70.5v480h60v-480zM385 880l-101 -160h-60l101 160h60z" />
<glyph unicode="&#xdb;" d="M460 160q0 -67 -47 -113.5t-113 -46.5h-70q-66 0 -113 46.5t-47 113.5v480h60v-480q0 -41 29.5 -70.5t70.5 -29.5h70q41 0 70.5 29.5t29.5 70.5v480h60v-480zM397 720h-60l-71 113l-71 -113h-60l101 160h59z" />
<glyph unicode="&#xdc;" d="M460 160q0 -67 -47 -113.5t-113 -46.5h-70q-66 0 -113 46.5t-47 113.5v480h60v-480q0 -41 29.5 -70.5t70.5 -29.5h70q41 0 70.5 29.5t29.5 70.5v480h60v-480zM216 743h-58v57h58v-57zM372 743h-58v57h58v-57z" />
<glyph unicode="&#xdd;" horiz-adv-x="500" d="M364 880l-101 -160h-60l101 160h60zM450 640v-220q0 -67 -47 -113.5t-113 -46.5h-9v-260h-60v260h-11q-66 0 -113 46.5t-47 113.5v220h61v-220q0 -41 29 -70.5t71 -29.5h78q42 0 71 29.5t29 70.5v220h61z" />
<glyph unicode="&#xde;" horiz-adv-x="500" d="M450 280q0 -67 -47 -113.5t-113 -46.5h-160v-120h-60v640h60v-120h160q66 0 113 -46.5t47 -113.5v-80zM389 280v80q0 41 -29 70.5t-70 29.5h-160v-280h160q41 0 70 29.5t29 70.5z" />
<glyph unicode="&#xdf;" horiz-adv-x="550" d="M500 160q0 -67 -47 -113.5t-113 -46.5h-80v60h80q41 0 70 29.5t29 70.5v121q0 36 -22.5 63t-56.5 35v140q0 25 -17.5 43t-42.5 18h-79q-25 0 -42.5 -18t-17.5 -43v-519h-61v339h-80v61h80v119q0 50 35.5 85.5t85.5 35.5h79q50 0 85 -35.5t35 -85.5v-100 q37 -21 58.5 -57.5t21.5 -80.5v-121z" />
<glyph unicode="&#xe0;" d="M460 0h-320q-33 0 -56.5 23.5t-23.5 56.5v130q0 33 23.5 56.5t56.5 23.5h260v110q0 8 -6 14t-14 6h-298v60h298q33 0 56.5 -23.5t23.5 -56.5v-400zM400 61v169h-260q-8 0 -14 -6t-6 -14v-130q0 -8 6 -13.5t14 -5.5h260zM301 560h-60l-101 160h60z" />
<glyph unicode="&#xe1;" d="M460 0h-320q-33 0 -56.5 23.5t-23.5 56.5v130q0 33 23.5 56.5t56.5 23.5h260v110q0 8 -6 14t-14 6h-298v60h298q33 0 56.5 -23.5t23.5 -56.5v-400zM400 61v169h-260q-8 0 -14 -6t-6 -14v-130q0 -8 6 -13.5t14 -5.5h260zM358 720l-101 -160h-60l101 160h60z" />
<glyph unicode="&#xe2;" d="M460 0h-320q-33 0 -56.5 23.5t-23.5 56.5v130q0 33 23.5 56.5t56.5 23.5h260v110q0 8 -6 14t-14 6h-298v60h298q33 0 56.5 -23.5t23.5 -56.5v-400zM400 61v169h-260q-8 0 -14 -6t-6 -14v-130q0 -8 6 -13.5t14 -5.5h260zM391 560h-60l-71 112l-71 -112h-60l101 160h59z " />
<glyph unicode="&#xe3;" d="M460 0h-320q-33 0 -56.5 23.5t-23.5 56.5v130q0 33 23.5 56.5t56.5 23.5h260v110q0 8 -6 14t-14 6h-298v60h298q33 0 56.5 -23.5t23.5 -56.5v-400zM400 61v169h-260q-8 0 -14 -6t-6 -14v-130q0 -8 6 -13.5t14 -5.5h260zM400 564h-97q-33 0 -56.5 23.5t-23.5 56.5 q0 8 -6 14t-14 6h-103v56h99q33 0 56.5 -24t23.5 -57q0 -8 6 -14t14 -6h101v-55z" />
<glyph unicode="&#xe4;" d="M460 0h-320q-33 0 -56.5 23.5t-23.5 56.5v130q0 33 23.5 56.5t56.5 23.5h260v110q0 8 -6 14t-14 6h-298v60h298q33 0 56.5 -23.5t23.5 -56.5v-400zM400 61v169h-260q-8 0 -14 -6t-6 -14v-130q0 -8 6 -13.5t14 -5.5h260zM209 583h-58v57h58v-57zM365 583h-58v57h58v-57z " />
<glyph unicode="&#xe5;" d="M460 0h-320q-33 0 -56.5 23.5t-23.5 56.5v130q0 33 23.5 56.5t56.5 23.5h260v110q0 8 -6 14t-14 6h-298v60h298q33 0 56.5 -23.5t23.5 -56.5v-400zM400 61v169h-260q-8 0 -14 -6t-6 -14v-130q0 -8 6 -13.5t14 -5.5h260zM380 640q0 -33 -23.5 -56.5t-56.5 -23.5h-80 q-33 0 -56.5 23.5t-23.5 56.5v80q0 33 23.5 56.5t56.5 23.5h80q33 0 56.5 -23.5t23.5 -56.5v-80zM329 611v138h-138v-138h138z" />
<glyph unicode="&#xe6;" horiz-adv-x="840" d="M780 211h-329v-54q0 -41 29 -69t70 -28h203v-60h-203q-80 0 -130 66q-48 -66 -129 -66h-151q-33 0 -56.5 23.5t-23.5 56.5v111q0 33 23.5 56.5t56.5 23.5h250v49q0 41 -29 70.5t-70 29.5h-210v60h210q81 0 129 -66q50 66 130 66h70q66 0 113 -46.5t47 -113.5v-109z M390 157v54h-250q-8 0 -14 -6t-6 -14v-111q0 -8 6 -14t14 -6h151q41 0 70 28t29 69zM719 271v49q0 41 -29 70.5t-70 29.5h-70q-41 0 -70 -29.5t-29 -70.5v-49h268z" />
<glyph unicode="&#xe7;" horiz-adv-x="500" d="M312 -120q0 -33 -23.5 -56.5t-56.5 -23.5h-80v55h80q11 0 18 7t7 18v120h-37q-66 0 -113 46.5t-47 113.5v160q0 67 47 113.5t113 46.5h140q33 0 56.5 -23.5t23.5 -56.5v-80h-60v80q0 8 -6 14t-14 6h-140q-41 0 -70 -29.5t-29 -70.5v-160q0 -41 29 -70.5t70 -29.5h214v-60 h-122v-120z" />
<glyph unicode="&#xe8;" horiz-adv-x="510" d="M311 560h-60l-101 160h60zM450 210h-329v-50q0 -41 29 -70.5t70 -29.5h203v-60h-203q-66 0 -113 46.5t-47 113.5v160q0 67 47 113.5t113 46.5h70q66 0 113 -46.5t47 -113.5v-110zM389 270v50q0 41 -29 70.5t-70 29.5h-70q-41 0 -70 -29.5t-29 -70.5v-50h268z" />
<glyph unicode="&#xe9;" horiz-adv-x="510" d="M398 720l-101 -160h-60l101 160h60zM450 210h-329v-50q0 -41 29 -70.5t70 -29.5h203v-60h-203q-66 0 -113 46.5t-47 113.5v160q0 67 47 113.5t113 46.5h70q66 0 113 -46.5t47 -113.5v-110zM389 270v50q0 41 -29 70.5t-70 29.5h-70q-41 0 -70 -29.5t-29 -70.5v-50h268z " />
<glyph unicode="&#xea;" horiz-adv-x="510" d="M395 560h-60l-71 112l-71 -112h-60l101 160h59zM450 210h-329v-50q0 -41 29 -70.5t70 -29.5h203v-60h-203q-66 0 -113 46.5t-47 113.5v160q0 67 47 113.5t113 46.5h70q66 0 113 -46.5t47 -113.5v-110zM389 270v50q0 41 -29 70.5t-70 29.5h-70q-41 0 -70 -29.5t-29 -70.5 v-50h268z" />
<glyph unicode="&#xeb;" horiz-adv-x="510" d="M219 583h-58v57h58v-57zM375 583h-58v57h58v-57zM450 210h-329v-50q0 -41 29 -70.5t70 -29.5h203v-60h-203q-66 0 -113 46.5t-47 113.5v160q0 67 47 113.5t113 46.5h70q66 0 113 -46.5t47 -113.5v-110zM389 270v50q0 41 -29 70.5t-70 29.5h-70q-41 0 -70 -29.5t-29 -70.5 v-50h268z" />
<glyph unicode="&#xec;" horiz-adv-x="200" d="M130 0h-60v480h60v-480zM131 560h-60l-101 160h60z" />
<glyph unicode="&#xed;" horiz-adv-x="200" d="M130 0h-60v480h60v-480zM221 720l-101 -160h-60l101 160h60z" />
<glyph unicode="&#xee;" horiz-adv-x="200" d="M130 0h-60v480h60v-480zM231 560h-60l-71 112l-70 -112h-60l100 160h59z" />
<glyph unicode="&#xef;" horiz-adv-x="200" d="M130 0h-60v480h60v-480zM53 583h-58v57h58v-57zM205 583h-58v57h58v-57z" />
<glyph unicode="&#xf0;" horiz-adv-x="560" d="M540 580h-80v-420q0 -67 -47 -113.5t-113 -46.5h-80q-66 0 -113 46.5t-47 113.5v160q0 67 47 113.5t113 46.5h179v100h-80v60h80v80h61v-80h80v-60zM399 160v260h-179q-41 0 -70 -29.5t-29 -70.5v-160q0 -41 29 -70.5t70 -29.5h80q41 0 70 29.5t29 70.5z" />
<glyph unicode="&#xf1;" d="M460 0h-61v320q0 41 -29 70.5t-70 29.5h-169v-420h-61v480h230q66 0 113 -46.5t47 -113.5v-320zM402 564h-97q-33 0 -56.5 23.5t-23.5 56.5q0 8 -6 14t-14 6h-103v56h99q33 0 56.5 -24t23.5 -57q0 -8 6 -14t14 -6h101v-55z" />
<glyph unicode="&#xf2;" horiz-adv-x="510" d="M301 560h-60l-101 160h60zM450 160q0 -67 -47 -113.5t-113 -46.5h-70q-66 0 -113 46.5t-47 113.5v160q0 67 47 113.5t113 46.5h70q66 0 113 -46.5t47 -113.5v-160zM389 160v160q0 41 -29 70.5t-70 29.5h-70q-41 0 -70 -29.5t-29 -70.5v-160q0 -41 29 -70.5t70 -29.5h70 q41 0 70 29.5t29 70.5z" />
<glyph unicode="&#xf3;" horiz-adv-x="510" d="M388 720l-101 -160h-60l101 160h60zM450 160q0 -67 -47 -113.5t-113 -46.5h-70q-66 0 -113 46.5t-47 113.5v160q0 67 47 113.5t113 46.5h70q66 0 113 -46.5t47 -113.5v-160zM389 160v160q0 41 -29 70.5t-70 29.5h-70q-41 0 -70 -29.5t-29 -70.5v-160q0 -41 29 -70.5 t70 -29.5h70q41 0 70 29.5t29 70.5z" />
<glyph unicode="&#xf4;" horiz-adv-x="510" d="M381 560h-60l-71 112l-71 -112h-60l101 160h59zM450 160q0 -67 -47 -113.5t-113 -46.5h-70q-66 0 -113 46.5t-47 113.5v160q0 67 47 113.5t113 46.5h70q66 0 113 -46.5t47 -113.5v-160zM389 160v160q0 41 -29 70.5t-70 29.5h-70q-41 0 -70 -29.5t-29 -70.5v-160 q0 -41 29 -70.5t70 -29.5h70q41 0 70 29.5t29 70.5z" />
<glyph unicode="&#xf5;" horiz-adv-x="510" d="M403 564h-97q-33 0 -56.5 23.5t-23.5 56.5q0 8 -6 14t-14 6h-103v56h99q33 0 56.5 -24t23.5 -57q0 -8 6 -14t14 -6h101v-55zM450 160q0 -67 -47 -113.5t-113 -46.5h-70q-66 0 -113 46.5t-47 113.5v160q0 67 47 113.5t113 46.5h70q66 0 113 -46.5t47 -113.5v-160zM389 160 v160q0 41 -29 70.5t-70 29.5h-70q-41 0 -70 -29.5t-29 -70.5v-160q0 -41 29 -70.5t70 -29.5h70q41 0 70 29.5t29 70.5z" />
<glyph unicode="&#xf6;" horiz-adv-x="510" d="M206 583h-58v57h58v-57zM362 583h-58v57h58v-57zM450 160q0 -67 -47 -113.5t-113 -46.5h-70q-66 0 -113 46.5t-47 113.5v160q0 67 47 113.5t113 46.5h70q66 0 113 -46.5t47 -113.5v-160zM389 160v160q0 41 -29 70.5t-70 29.5h-70q-41 0 -70 -29.5t-29 -70.5v-160 q0 -41 29 -70.5t70 -29.5h70q41 0 70 29.5t29 70.5z" />
<glyph unicode="&#xf7;" horiz-adv-x="540" d="M470 260h-400v60h400v-60zM303 400h-81v80h81v-80zM229 180h81v-80h-81v80z" />
<glyph unicode="&#xf8;" horiz-adv-x="510" d="M461 462l-39 -50q28 -40 28 -92v-160q0 -67 -47 -113.5t-113 -46.5h-70q-49 0 -91 29l-34 -44l-45 34l39 50q-29 42 -29 91v160q0 67 47 113.5t113 46.5h70q52 0 92 -29l34 45zM346 404q-26 16 -56 16h-70q-41 0 -70 -29.5t-29 -70.5v-160q0 -19 8 -38zM389 160v160 q0 22 -7 39l-217 -282q27 -17 55 -17h70q41 0 70 29.5t29 70.5z" />
<glyph unicode="&#xf9;" d="M300 0h-70q-66 0 -113 46.5t-47 113.5v320h61v-320q0 -41 29 -70.5t70 -29.5h70q41 0 70 29.5t29 70.5v320h61v-320q0 -67 -47 -113.5t-113 -46.5zM304 560h-60l-101 160h60z" />
<glyph unicode="&#xfa;" d="M300 0h-70q-66 0 -113 46.5t-47 113.5v320h61v-320q0 -41 29 -70.5t70 -29.5h70q41 0 70 29.5t29 70.5v320h61v-320q0 -67 -47 -113.5t-113 -46.5zM383 720l-101 -160h-60l101 160h60z" />
<glyph unicode="&#xfb;" d="M300 0h-70q-66 0 -113 46.5t-47 113.5v320h61v-320q0 -41 29 -70.5t70 -29.5h70q41 0 70 29.5t29 70.5v320h61v-320q0 -67 -47 -113.5t-113 -46.5zM396 560h-60l-71 112l-71 -112h-60l101 160h59z" />
<glyph unicode="&#xfc;" d="M300 0h-70q-66 0 -113 46.5t-47 113.5v320h61v-320q0 -41 29 -70.5t70 -29.5h70q41 0 70 29.5t29 70.5v320h61v-320q0 -67 -47 -113.5t-113 -46.5zM216 583h-58v57h58v-57zM372 583h-58v57h58v-57z" />
<glyph unicode="&#xfd;" d="M460 -120q0 -33 -23.5 -56.5t-56.5 -23.5h-44v60h44q8 0 14 6t6 14v120h-170q-66 0 -113 46.5t-47 113.5v320h61v-320q0 -41 29 -70.5t70 -29.5h169v420h61v-600zM388 720l-101 -160h-60l101 160h60z" />
<glyph unicode="&#xfe;" d="M470 160q0 -67 -47 -113.5t-113 -46.5h-180v-200h-60v840h60v-160h180q66 0 113 -46.5t47 -113.5v-160zM409 160v160q0 41 -29 70.5t-70 29.5h-180v-360h180q41 0 70 29.5t29 70.5z" />
<glyph unicode="&#xff;" d="M460 -120q0 -33 -23.5 -56.5t-56.5 -23.5h-44v60h44q8 0 14 6t6 14v120h-170q-66 0 -113 46.5t-47 113.5v320h61v-320q0 -41 29 -70.5t70 -29.5h169v420h61v-600zM374 583h-58v57h58v-57zM218 583h-58v57h58v-57z" />
<glyph unicode="&#x131;" horiz-adv-x="200" d="M130 0h-60v480h60v-480z" />
<glyph unicode="&#x141;" horiz-adv-x="480" d="M430 0h-302v320h-98v60h98v260h61v-260h155v-60h-155v-259h241v-61z" />
<glyph unicode="&#x142;" horiz-adv-x="259" d="M239 340h-79v-340h-61v320h-79v60h79v340h61v-319h79v-61z" />
<glyph unicode="&#x152;" horiz-adv-x="820" d="M770 0h-181q-82 0 -130 66q-48 -66 -129 -66h-110q-66 0 -113 46.5t-47 113.5v320q0 67 47 113.5t113 46.5h550v-60h-280v-200h280v-60h-280v-160q0 -41 29 -70.5t70 -29.5h181v-60zM429 160v420h-209q-41 0 -70.5 -29.5t-29.5 -70.5v-320q0 -41 29.5 -70.5t70.5 -29.5 h110q41 0 70 29.5t29 70.5z" />
<glyph unicode="&#x153;" horiz-adv-x="830" d="M780 210h-329v-50q0 -41 29 -70.5t70 -29.5h203v-60h-203q-82 0 -129 65q-47 -65 -130 -65h-71q-66 0 -113 46.5t-47 113.5v160q0 67 47 113.5t113 46.5h71q82 0 130 -66q48 66 129 66h70q66 0 113 -46.5t47 -113.5v-110zM451 320v-50h268v50q0 41 -29 70.5t-70 29.5h-70 q-41 0 -70 -29.5t-29 -70.5zM390 160v160q0 41 -29 70.5t-70 29.5h-71q-41 0 -70 -29.5t-29 -70.5v-160q0 -41 29 -70.5t70 -29.5h71q41 0 70 29.5t29 70.5z" />
<glyph unicode="&#x160;" horiz-adv-x="500" d="M440 116q0 -48 -34 -82t-82 -34h-244v61h244q23 0 39 16t16 39v126q0 22 -16.5 38.5t-38.5 16.5h-148q-48 0 -82 34t-34 82v111q0 48 34 82t82 34h254v-60h-254q-23 0 -39.5 -16.5t-16.5 -39.5v-111q0 -23 16.5 -39.5t39.5 -16.5h148q48 0 82 -34t34 -82v-125zM400 880 l-101 -160h-59l-102 160h60l71 -111l71 111h60z" />
<glyph unicode="&#x161;" horiz-adv-x="460" d="M400 80q0 -33 -23.5 -56.5t-56.5 -23.5h-244v60h244q8 0 14 6t6 14v120q0 8 -6 14t-14 6h-180q-33 0 -56.5 23.5t-23.5 56.5v100q0 33 23.5 56.5t56.5 23.5h253v-60h-253q-8 0 -14 -6t-6 -14v-100q0 -8 6 -14t14 -6h180q33 0 56.5 -23.5t23.5 -56.5v-120zM371 720 l-101 -160h-59l-102 160h60l71 -111l71 111h60z" />
<glyph unicode="&#x178;" horiz-adv-x="500" d="M384 728h-72v72h72v-72zM224 728h-72v72h72v-72zM450 640v-220q0 -67 -47 -113.5t-113 -46.5h-9v-260h-60v260h-11q-66 0 -113 46.5t-47 113.5v220h61v-220q0 -41 29 -70.5t71 -29.5h78q42 0 71 29.5t29 70.5v220h61z" />
<glyph unicode="&#x17d;" horiz-adv-x="580" d="M540 640l-387 -579h329v-61h-442l388 580h-330v60h442zM430 880l-101 -160h-59l-102 160h60l71 -111l71 111h60z" />
<glyph unicode="&#x17e;" horiz-adv-x="510" d="M470 480l-310 -420h278v-60h-398l310 420h-278v60h398zM391 720l-101 -160h-59l-102 160h60l71 -111l71 111h60z" />
<glyph unicode="&#x192;" horiz-adv-x="410" d="M360 580h-26q-41 0 -70 -29.5t-29 -70.5v-51h125v-60h-125v-129q0 -67 -47 -113.5t-113 -46.5h-25v60h25q41 0 70 29.5t29 70.5v129h-99v60h99v51q0 67 47 113.5t113 46.5h26v-60z" />
<glyph unicode="&#x2c6;" horiz-adv-x="380" d="M321 560h-60l-71 113l-71 -113h-60l101 160h59z" />
<glyph unicode="&#x2c7;" horiz-adv-x="380" d="M321 720l-101 -160h-59l-102 160h60l71 -111l71 111h60z" />
<glyph unicode="&#x2d8;" horiz-adv-x="380" d="M310 720v-80q0 -33 -23.5 -56.5t-56.5 -23.5h-80q-33 0 -56.5 23.5t-23.5 56.5v80h55v-85q0 -8 6 -14t14 -6h90q8 0 14 6t6 14v85h55z" />
<glyph unicode="&#x2d9;" horiz-adv-x="380" d="M219 583h-58v57h58v-57z" />
<glyph unicode="&#x2da;" horiz-adv-x="380" d="M310 640q0 -33 -23.5 -56.5t-56.5 -23.5h-80q-33 0 -56.5 23.5t-23.5 56.5v80q0 33 23.5 56.5t56.5 23.5h80q33 0 56.5 -23.5t23.5 -56.5v-80zM259 611v138h-138v-138h138z" />
<glyph unicode="&#x2db;" horiz-adv-x="380" d="M290 -200h-80q-33 0 -56.5 23.5t-23.5 56.5v130h55v-130q0 -10 7.5 -17.5t17.5 -7.5h80v-55z" />
<glyph unicode="&#x2dc;" horiz-adv-x="380" d="M340 564h-97q-33 0 -56.5 23.5t-23.5 56.5q0 8 -6 14t-14 6h-103v56h99q33 0 56.5 -24t23.5 -57q0 -8 6 -14t14 -6h101v-55z" />
<glyph unicode="&#x2dd;" horiz-adv-x="380" d="M192 720l-101 -160h-60l101 160h60zM360 720l-101 -160h-60l101 160h60z" />
<glyph unicode="&#x3c0;" horiz-adv-x="560" d="M500 420h-70v-340q0 -8 6 -14t14 -6h50v-60h-50q-33 0 -56.5 23.5t-23.5 56.5v340h-180v-420h-60v420h-70v60h440v-60z" />
<glyph unicode="&#x2012;" horiz-adv-x="600" d="M550 320h-500v60h500v-60z" />
<glyph unicode="&#x2013;" horiz-adv-x="540" d="M490 260h-440v60h440v-60z" />
<glyph unicode="&#x2014;" horiz-adv-x="800" d="M750 260h-700v60h700v-60z" />
<glyph unicode="&#x2018;" horiz-adv-x="230" d="M170 480h-63l-77 240h62z" />
<glyph unicode="&#x2019;" horiz-adv-x="230" d="M200 720l-77 -240h-63l78 240h62z" />
<glyph unicode="&#x201a;" horiz-adv-x="240" d="M183 120l-100 -320h-63l101 320h62z" />
<glyph unicode="&#x201c;" horiz-adv-x="440" d="M168 480h-63l-75 240h62zM380 480h-63l-75 240h62z" />
<glyph unicode="&#x201d;" horiz-adv-x="440" d="M410 720l-75 -240h-63l76 240h62zM198 720l-75 -240h-63l76 240h62z" />
<glyph unicode="&#x201e;" horiz-adv-x="450" d="M183 120l-100 -320h-63l101 320h62zM393 120l-100 -320h-63l101 320h62z" />
<glyph unicode="&#x2020;" horiz-adv-x="380" d="M330 420h-110v-620h-60v620h-110v60h110v160h60v-160h110v-60z" />
<glyph unicode="&#x2021;" horiz-adv-x="380" d="M50 181v59h110v180h-110v60h110v160h60v-160h110v-60h-110v-180h110v-59h-110v-381h-60v381h-110z" />
<glyph unicode="&#x2022;" horiz-adv-x="300" d="M230 400v-160h-160v160h160z" />
<glyph unicode="&#x2026;" horiz-adv-x="660" d="M140 0h-60v120h60v-120zM360 0h-60v120h60v-120zM580 0h-60v120h60v-120z" />
<glyph unicode="&#x2030;" horiz-adv-x="980" d="M330 440q0 -33 -23.5 -56.5t-56.5 -23.5h-120q-33 0 -56.5 23.5t-23.5 56.5v120q0 33 23.5 56.5t56.5 23.5h120q33 0 56.5 -23.5t23.5 -56.5v-120zM270 440v120q0 8 -6 14t-14 6h-120q-8 0 -14 -6t-6 -14v-120q0 -8 6 -14t14 -6h120q8 0 14 6t6 14zM930 80 q0 -33 -23.5 -56.5t-56.5 -23.5h-340q-33 0 -56.5 23.5t-23.5 56.5v120q0 33 23.5 56.5t56.5 23.5h340q33 0 56.5 -23.5t23.5 -56.5v-120zM650 60v160h-140q-8 0 -14 -6t-6 -14v-120q0 -8 6 -14t14 -6h140zM870 80v120q0 8 -6 14t-14 6h-140v-160h140q8 0 14 6t6 14z M580 640l-331 -640h-69l332 640h68z" />
<glyph unicode="&#x2039;" horiz-adv-x="330" d="M280 97l-43 -41l-237 240l237 240l43 -42l-195 -198z" />
<glyph unicode="&#x203a;" horiz-adv-x="330" d="M330 296l-237 -240l-43 41l195 199l-195 198l43 42z" />
<glyph unicode="&#x2044;" horiz-adv-x="460" d="M430 640l-332 -640h-68l333 640h67z" />
<glyph unicode="&#x2070;" horiz-adv-x="440" d="M390 350q0 -46 -32 -78t-78 -32h-119q-46 0 -78.5 32t-32.5 78v179q0 46 32.5 78.5t78.5 32.5h119q46 0 78 -32.5t32 -78.5v-179zM332 360v160q0 25 -17.5 43t-42.5 18h-104q-25 0 -42.5 -18t-17.5 -43v-160q0 -25 17.5 -43t42.5 -18h104q25 0 42.5 17.5t17.5 43.5z" />
<glyph unicode="&#x2074;" horiz-adv-x="387" d="M367 329h-74v-88h-57v88h-236l160 312h64q-102 -198 -130 -255h142v95h57v-95h74v-57z" />
<glyph unicode="&#x2075;" horiz-adv-x="410" d="M360 316q0 -32 -22 -54t-54 -22h-234v57h234q8 0 13.5 5.5t5.5 13.5v81q0 7 -6 12.5t-13 5.5h-234v225h295v-57h-238v-110h177q31 0 53.5 -22.5t22.5 -53.5v-81z" />
<glyph unicode="&#x2076;" horiz-adv-x="420" d="M370 317q0 -31 -22 -53.5t-54 -22.5h-168q-32 0 -54 22.5t-22 53.5v248q0 31 22.5 53.5t53.5 22.5h227v-58h-227q-7 0 -13 -5.5t-6 -12.5v-91h187q31 0 53.5 -22.5t22.5 -53.5v-81zM313 317v81q0 7 -6 12.5t-13 5.5h-187v-99q0 -8 5.5 -13.5t13.5 -5.5h168q8 0 13.5 5.5 t5.5 13.5z" />
<glyph unicode="&#x2077;" horiz-adv-x="360" d="M89 241l177 343h-236v57h330l-207 -400h-64z" />
<glyph unicode="&#x2078;" horiz-adv-x="450" d="M400 316q0 -32 -22 -54t-54 -22h-198q-32 0 -54 22t-22 54v78q0 45 41 67v103q0 31 22.5 53.5t53.5 22.5h116q31 0 53.5 -22.5t22.5 -53.5v-103q41 -21 41 -67v-78zM302 470v94q0 7 -5.5 12.5t-13.5 5.5h-116q-7 0 -13 -5.5t-6 -12.5v-94h154zM343 316v78q0 7 -5.5 12.5 t-13.5 5.5h-198q-7 0 -13 -5.5t-6 -12.5v-78q0 -8 5.5 -13.5t13.5 -5.5h198q19 0 19 19z" />
<glyph unicode="&#x2079;" horiz-adv-x="420" d="M370 316q0 -32 -22 -54t-54 -22h-230v57h230q8 0 13.5 5.5t5.5 13.5v91h-187q-32 0 -54 22.5t-22 53.5v81q0 32 22 54t54 22h168q32 0 54 -22t22 -54v-248zM313 464v100q0 7 -5.5 12.5t-13.5 5.5h-168q-8 0 -13.5 -5.5t-5.5 -12.5v-81q0 -7 5.5 -13t13.5 -6h187z" />
<glyph unicode="&#x207d;" horiz-adv-x="310" d="M270 140h-40q-66 0 -113 46.5t-47 113.5v240q0 67 47 113.5t113 46.5h40v-60h-40q-41 0 -70.5 -29.5t-29.5 -70.5v-240q0 -41 29.5 -70t70.5 -29h40v-61z" />
<glyph unicode="&#x207e;" horiz-adv-x="310" d="M240 301q0 -67 -47 -113.5t-113 -46.5h-40v60h40q41 0 70.5 29.5t29.5 70.5v240q0 41 -29.5 70t-70.5 29h-40v61h40q66 0 113 -46.5t47 -113.5v-240z" />
<glyph unicode="&#x2080;" horiz-adv-x="440" d="M390 110q0 -46 -32 -78t-78 -32h-119q-46 0 -78.5 32t-32.5 78v179q0 46 32.5 78.5t78.5 32.5h119q46 0 78 -32.5t32 -78.5v-179zM332 120v160q0 25 -17.5 43t-42.5 18h-104q-25 0 -42.5 -18t-17.5 -43v-160q0 -25 17.5 -43t42.5 -18h104q25 0 42.5 17.5t17.5 43.5z" />
<glyph unicode="&#x2081;" horiz-adv-x="210" d="M160 0h-57v343h-83v57h140v-400z" />
<glyph unicode="&#x2082;" horiz-adv-x="410" d="M360 251q0 -31 -22.5 -53.5t-53.5 -22.5h-158q-7 0 -13 -5.5t-6 -12.5v-100h253v-57h-310v157q0 31 22.5 53.5t53.5 22.5h158q7 0 13 5.5t6 12.5v73q0 8 -5.5 13.5t-13.5 5.5h-219v57h219q32 0 54 -22t22 -54v-73z" />
<glyph unicode="&#x2083;" horiz-adv-x="420" d="M370 76q0 -32 -22 -54t-54 -22h-244v57h244q19 0 19 19v88q0 7 -5.5 12.5t-13.5 5.5h-244v58h222v102h-222v58h279v-169q41 -21 41 -67v-88z" />
<glyph unicode="&#x2084;" horiz-adv-x="387" d="M367 88h-74v-88h-57v88h-236l160 312h64l-130 -255h142v95h57v-95h74v-57z" />
<glyph unicode="&#x2085;" horiz-adv-x="410" d="M360 76q0 -32 -22 -54t-54 -22h-234v57h234q8 0 13.5 5.5t5.5 13.5v81q0 7 -6 12.5t-13 5.5h-234v225h295v-57h-238v-110h177q31 0 53.5 -22.5t22.5 -53.5v-81z" />
<glyph unicode="&#x2086;" horiz-adv-x="420" d="M370 76q0 -32 -22 -54t-54 -22h-168q-32 0 -54 22t-22 54v248q0 31 22.5 53.5t53.5 22.5h227v-58h-227q-7 0 -13 -5.5t-6 -12.5v-91h187q31 0 53.5 -22.5t22.5 -53.5v-81zM313 76v81q0 7 -6 12.5t-13 5.5h-187v-99q0 -8 5.5 -13.5t13.5 -5.5h168q8 0 13.5 5.5t5.5 13.5z " />
<glyph unicode="&#x2087;" horiz-adv-x="360" d="M89 0l177 343h-236v57h330l-207 -400h-64z" />
<glyph unicode="&#x2088;" horiz-adv-x="450" d="M400 76q0 -32 -22 -54t-54 -22h-198q-32 0 -54 22t-22 54v78q0 45 41 67v103q0 31 22.5 53.5t53.5 22.5h116q31 0 53.5 -22.5t22.5 -53.5v-103q41 -21 41 -67v-78zM302 230v94q0 7 -5.5 12.5t-13.5 5.5h-116q-7 0 -13 -5.5t-6 -12.5v-94h154zM343 76v78q0 7 -5.5 12.5 t-13.5 5.5h-198q-7 0 -13 -5.5t-6 -12.5v-78q0 -8 5.5 -13.5t13.5 -5.5h198q19 0 19 19z" />
<glyph unicode="&#x2089;" horiz-adv-x="420" d="M370 76q0 -32 -22 -54t-54 -22h-230v57h230q8 0 13.5 5.5t5.5 13.5v91h-187q-32 0 -54 22.5t-22 53.5v81q0 32 22 54t54 22h168q32 0 54 -22t22 -54v-248zM313 224v100q0 7 -5.5 12.5t-13.5 5.5h-168q-8 0 -13.5 -5.5t-5.5 -12.5v-81q0 -7 5.5 -13t13.5 -6h187z" />
<glyph unicode="&#x208d;" horiz-adv-x="310" d="M270 -80h-40q-66 0 -113 46.5t-47 113.5v240q0 67 47 113.5t113 46.5h40v-60h-40q-41 0 -70.5 -29.5t-29.5 -70.5v-240q0 -41 29.5 -70t70.5 -29h40v-61z" />
<glyph unicode="&#x208e;" horiz-adv-x="310" d="M240 80q0 -67 -47 -113.5t-113 -46.5h-40v60h40q41 0 70.5 29.5t29.5 70.5v240q0 41 -29.5 70t-70.5 29h-40v61h40q66 0 113 -46.5t47 -113.5v-240z" />
<glyph unicode="&#x20a1;" horiz-adv-x="500" d="M450 280h-78v-120h-57v120h-86v-120h-57v120h-46q-31 0 -53.5 22.5t-22.5 53.5v168q0 31 22.5 53.5t53.5 22.5h46v120h57v-120h86v120h57v-120h78v-57h-324q-8 0 -13.5 -5.5t-5.5 -13.5v-168q0 -7 5.5 -12.5t13.5 -5.5h324v-58z" />
<glyph unicode="&#x20aa;" horiz-adv-x="680" d="M610 240h-303q-31 0 -53.5 22.5t-22.5 53.5v253h57v-253q0 -7 6 -12.5t13 -5.5h246v422h57v-480zM449 391h-57v253q0 7 -6 12.5t-13 5.5h-246v-422h-57v480h303q31 0 53.5 -22.5t22.5 -53.5v-253z" />
<glyph unicode="&#x20ac;" horiz-adv-x="560" d="M490 160h-161q-55 0 -98 34t-57 86h-124v60h119v120h-119v60h124q14 52 56.5 86t98.5 34h161v-60h-161q-41 0 -70 -29.5t-29 -70.5v-50h260v-60h-260v-50q0 -41 29 -70.5t70 -29.5h161v-60z" />
<glyph unicode="&#x2122;" horiz-adv-x="790" d="M274 601h-92v-241h-39v241h-93v39h224v-39zM740 360h-40v175q0 27 -18.5 46.5t-45.5 19.5h-68v-241h-39v241h-134v-241h-39v280h280q43 0 73.5 -31t30.5 -74v-175z" />
<glyph unicode="&#x2126;" horiz-adv-x="596" d="M546 0h-205v60h6q41 0 70.5 29.5t29.5 70.5v320q0 41 -29.5 70.5t-70.5 29.5h-98q-41 0 -70.5 -29.5t-29.5 -70.5v-320q0 -41 29.5 -70.5t70.5 -29.5h6v-60h-205v60h74q-35 43 -35 100v320q0 67 47 113.5t113 46.5h98q66 0 113 -46.5t47 -113.5v-320q0 -55 -35 -100h74 v-60z" />
<glyph unicode="&#x2153;" horiz-adv-x="880" d="M830 76q0 -32 -22 -54t-54 -22h-244v57h244q19 0 19 19v88q0 7 -5.5 12.5t-13.5 5.5h-244v58h222v102h-222v58h279v-169q41 -21 41 -67v-88zM555 640l-332 -640h-68l333 640h67zM162 240h-57v343h-85v57h142v-400z" />
<glyph unicode="&#x2154;" horiz-adv-x="1040" d="M360 491q0 -31 -22.5 -53.5t-53.5 -22.5h-158q-7 0 -13 -5.5t-6 -12.5v-100h253v-57h-310v157q0 31 22.5 53.5t53.5 22.5h158q7 0 13 5.5t6 12.5v73q0 8 -5.5 13.5t-13.5 5.5h-219v57h219q32 0 54 -22t22 -54v-73zM716 640l-332 -640h-68l333 640h67zM990 76 q0 -32 -22 -54t-54 -22h-248v57h248q19 0 19 19v88q0 7 -5.5 12.5t-13.5 5.5h-248v58h226v84q0 7 -5.5 12.5t-13.5 5.5h-207v58h207q31 0 53.5 -22.5t22.5 -53.5v-93q41 -21 41 -67v-88z" />
<glyph unicode="&#x215b;" horiz-adv-x="870" d="M162 240h-57v343h-85v57h142v-400zM555 640l-332 -640h-68l333 640h67zM820 76q0 -32 -22 -54t-54 -22h-198q-32 0 -54 22t-22 54v78q0 45 41 67v103q0 31 22.5 53.5t53.5 22.5h116q31 0 53.5 -22.5t22.5 -53.5v-103q41 -21 41 -67v-78zM722 230v94q0 7 -5.5 12.5 t-13.5 5.5h-116q-7 0 -13 -5.5t-6 -12.5v-94h154zM763 76v78q0 7 -5.5 12.5t-13.5 5.5h-198q-7 0 -13 -5.5t-6 -12.5v-78q0 -8 5.5 -13.5t13.5 -5.5h198q19 0 19 19z" />
<glyph unicode="&#x215c;" horiz-adv-x="1028" d="M978 76q0 -32 -22 -54t-54 -22h-198q-32 0 -54 22t-22 54v88q0 45 41 67v93q0 31 22.5 53.5t53.5 22.5h116q31 0 53.5 -22.5t22.5 -53.5v-93q41 -21 41 -67v-88zM921 76v88q0 7 -5.5 12.5t-13.5 5.5h-198q-7 0 -13 -5.5t-6 -12.5v-88q0 -8 5.5 -13.5t13.5 -5.5h198 q19 0 19 19zM880 240v84q0 7 -5.5 12.5t-13.5 5.5h-116q-7 0 -13 -5.5t-6 -12.5v-84h154zM715 640l-332 -640h-68l333 640h67zM370 316q0 -32 -22 -54t-54 -22h-244v57h244q19 0 19 19v88q0 7 -5.5 12.5t-13.5 5.5h-244v58h222v102h-222v58h279v-169q41 -21 41 -67v-88z" />
<glyph unicode="&#x215d;" horiz-adv-x="1004" d="M360 316q0 -32 -22 -54t-54 -22h-234v57h234q8 0 13.5 5.5t5.5 13.5v81q0 7 -6 12.5t-13 5.5h-234v225h295v-57h-238v-110h177q31 0 53.5 -22.5t22.5 -53.5v-81zM691 640l-332 -640h-68l333 640h67zM954 76q0 -32 -22 -54t-54 -22h-198q-32 0 -54 22t-22 54v78 q0 45 41 67v103q0 31 22.5 53.5t53.5 22.5h116q31 0 53.5 -22.5t22.5 -53.5v-103q41 -21 41 -67v-78zM856 230v94q0 7 -5.5 12.5t-13.5 5.5h-116q-7 0 -13 -5.5t-6 -12.5v-94h154zM897 76v78q0 7 -5.5 12.5t-13.5 5.5h-198q-7 0 -13 -5.5t-6 -12.5v-78q0 -8 5.5 -13.5 t13.5 -5.5h198q19 0 19 19z" />
<glyph unicode="&#x215e;" horiz-adv-x="890" d="M840 76q0 -32 -22 -54t-54 -22h-198q-32 0 -54 22t-22 54v78q0 45 41 67v103q0 31 22.5 53.5t53.5 22.5h116q31 0 53.5 -22.5t22.5 -53.5v-103q41 -21 41 -67v-78zM783 76v78q0 7 -5.5 12.5t-13.5 5.5h-198q-7 0 -13 -5.5t-6 -12.5v-78q0 -8 5.5 -13.5t13.5 -5.5h198 q19 0 19 19zM742 230v94q0 7 -5.5 12.5t-13.5 5.5h-116q-7 0 -13 -5.5t-6 -12.5v-94h154zM578 640l-332 -640h-68l333 640h67zM360 642l-207 -400h-64l177 343h-236v57h330z" />
<glyph unicode="&#x2202;" horiz-adv-x="580" d="M510 140q0 -65 -45.5 -102.5t-114.5 -37.5h-120q-69 0 -114.5 37.5t-45.5 102.5v80q0 67 47 113.5t113 46.5h220v100q0 41 -29.5 70.5t-70.5 29.5h-244v60h244q66 0 113 -46.5t47 -113.5v-340zM450 140v180h-220q-41 0 -70 -29t-29 -71v-80q0 -39 27.5 -59.5t71.5 -20.5 h120q44 0 72 20.5t28 59.5z" />
<glyph unicode="&#x2206;" horiz-adv-x="551" d="M501 0h-451l226 665z" />
<glyph unicode="&#x220f;" horiz-adv-x="510" d="M440 0h-61v580h-248v-580h-61v640h370v-640z" />
<glyph unicode="&#x2211;" horiz-adv-x="480" d="M430 0h-360v125l193 195l-193 195v125h360v-60h-299v-40l217 -220l-217 -219v-40h299v-61z" />
<glyph unicode="&#x2212;" horiz-adv-x="540" d="M470 260h-400v60h400v-60z" />
<glyph unicode="&#x221a;" horiz-adv-x="660" d="M680 720l-368 -720h-47l-133 260h-82v60h119l119 -234l324 634h68z" />
<glyph unicode="&#x221e;" horiz-adv-x="810" d="M740 240q0 -67 -47 -113.5t-113 -46.5h-21q-51 0 -87 51l-96 136l-53 -75q-22 -32 -70 -32h-103q-33 0 -56.5 23.5t-23.5 56.5v160q0 33 23.5 56.5t56.5 23.5h103q48 0 70 -32l53 -75l96 136q35 51 87 51h21q66 0 113 -46.5t47 -113.5v-160zM269 220l70 100l-70 100h-119 q-8 0 -14 -6t-6 -14v-160q0 -8 6 -14t14 -6h119zM679 240v160q0 41 -29 70.5t-70 29.5h-40l-127 -180l127 -180h40q41 0 70 29.5t29 70.5z" />
<glyph unicode="&#x222b;" horiz-adv-x="315" d="M255 640h-67v-620q0 -33 -23.5 -56.5t-56.5 -23.5h-48v60h68v619q0 34 23.5 57t56.5 23h47v-59z" />
<glyph unicode="&#x2248;" horiz-adv-x="500" d="M450 399h-150q-8 0 -14 -6t-6 -14q0 -33 -23.5 -56.5t-56.5 -23.5h-150v60h150q8 0 14 6t6 14q0 33 23.5 56.5t56.5 23.5h150v-60zM450 210h-150q-8 0 -14 -6t-6 -14q0 -33 -23.5 -56.5t-56.5 -23.5h-150v60h150q8 0 14 6t6 14q0 33 23.5 56.5t56.5 23.5h150v-60z" />
<glyph unicode="&#x2260;" horiz-adv-x="540" d="M470 160h-228l-82 -160h-68l82 160h-104v60h135l62 120h-197v60h228l82 160h68l-82 -160h104v-60h-135l-62 -120h197v-60z" />
<glyph unicode="&#x2264;" horiz-adv-x="540" d="M364 164l-43 -43l-240 240l240 240l43 -43l-197 -197zM470 0h-400v60h400v-60z" />
<glyph unicode="&#x2265;" horiz-adv-x="540" d="M459 361l-240 -240l-43 43l197 197l-197 197l43 43zM470 0h-400v60h400v-60z" />
<glyph unicode="&#x25ca;" horiz-adv-x="414" d="M364 320l-157 -345l-157 345l157 345z" />
<glyph unicode="&#x25fc;" horiz-adv-x="480" d="M0 480h480v-480h-480v480z" />
<glyph unicode="&#xf628;" horiz-adv-x="1050" d="M1000 78q0 -32 -23.5 -55t-55.5 -23h-341q-32 0 -55.5 23t-23.5 55v124q0 32 23.5 55t55.5 23h341q32 0 55.5 -23t23.5 -55v-124zM941 78v124q0 8 -6 13.5t-14 5.5h-141v-162h141q8 0 14 5.5t6 13.5zM721 59v162h-141q-8 0 -14 -5.5t-6 -13.5v-124q0 -8 6 -13.5t14 -5.5 h141zM574 480l-249 -480h-69l249 480h69zM329 278q0 -32 -23 -55t-56 -23h-121q-32 0 -55.5 23t-23.5 55v124q0 32 23.5 55t55.5 23h121q33 0 56 -23t23 -55v-124zM270 278v124q0 8 -6 13.5t-14 5.5h-121q-8 0 -14 -5.5t-6 -13.5v-124q0 -8 6 -13.5t14 -5.5h121q8 0 14 5.5 t6 13.5z" />
<glyph unicode="&#xf642;" horiz-adv-x="830" d="M780 78q0 -32 -23.5 -55t-55.5 -23h-121q-32 0 -55.5 23t-23.5 55v124q0 32 23.5 55t55.5 23h121q32 0 55.5 -23t23.5 -55v-124zM721 78v124q0 8 -6 13.5t-14 5.5h-121q-8 0 -14 -5.5t-6 -13.5v-124q0 -8 6 -13.5t14 -5.5h121q8 0 14 5.5t6 13.5zM574 480l-249 -480h-69 l249 480h69zM329 278q0 -32 -23 -55t-56 -23h-121q-32 0 -55.5 23t-23.5 55v124q0 32 23.5 55t55.5 23h121q33 0 56 -23t23 -55v-124zM109 278q0 -8 6 -13.5t14 -5.5h121q8 0 14 5.5t6 13.5v124q0 8 -6 13.5t-14 5.5h-121q-8 0 -14 -5.5t-6 -13.5v-124z" />
<glyph unicode="&#xf64d;" horiz-adv-x="500" d="M450 120h-78v-120h-57v120h-86v-120h-57v120h-46q-31 0 -53.5 22.5t-22.5 53.5v168q0 31 22.5 53.5t53.5 22.5h46v120h57v-120h86v120h57v-120h78v-57h-324q-8 0 -13.5 -5.5t-5.5 -13.5v-168q0 -7 5.5 -12.5t13.5 -5.5h324v-58z" />
<glyph unicode="&#xf650;" horiz-adv-x="500" d="M450 120h-80v-120h-61v120h-119v-120h-60v120h-80v61h80v119h-80v60h80v120h60v-120h119v120h61v-120h80v-60h-80v-119h80v-61zM311 179v123h-123v-123h123z" />
<glyph unicode="&#xf66b;" horiz-adv-x="200" d="M150 320l-89 -280h-61l90 280h60z" />
<glyph unicode="&#xf6dd;" horiz-adv-x="670" d="M610 80q0 -33 -23.5 -56.5t-56.5 -23.5h-161v-160h-60v380h-179v-220h-60v480h219q33 0 56.5 -23.5t23.5 -56.5v-120h161q33 0 56.5 -23.5t23.5 -56.5v-120zM550 80v120q0 8 -6 14t-14 6h-161v-159h161q8 0 14 5.5t6 13.5zM309 280v120q0 8 -6 14t-14 6h-159v-140h179z " />
<glyph unicode="&#xf6de;" horiz-adv-x="600" d="M550 320h-500v60h500v-60z" />
<glyph unicode="&#xf6df;" horiz-adv-x="360" d="M310 0h-78v-80h-57v80h-49q-31 0 -53.5 22.5t-22.5 53.5v168q0 31 22.5 53.5t53.5 22.5h49v80h57v-80h78v-57h-184q-8 0 -13.5 -5.5t-5.5 -13.5v-168q0 -7 5.5 -12.5t13.5 -5.5h184v-58z" />
<glyph unicode="&#xf6e0;" horiz-adv-x="360" d="M310 320h-78v-80h-57v80h-49q-31 0 -53.5 22.5t-22.5 53.5v168q0 31 22.5 53.5t53.5 22.5h49v80h57v-80h78v-57h-184q-8 0 -13.5 -5.5t-5.5 -13.5v-168q0 -7 5.5 -12.5t13.5 -5.5h184v-58z" />
<glyph unicode="&#xf6e3;" horiz-adv-x="420" d="M370 76q0 -32 -22 -54t-54 -22h-55v-80h-57v80h-117v57h229q8 0 13.5 5.5t5.5 13.5v81q0 7 -6 12.5t-13 5.5h-168q-32 0 -54 22.5t-22 53.5v73q0 32 22 54t54 22h56v80h57v-80h125v-57h-238q-8 0 -13.5 -5.5t-5.5 -13.5v-73q0 -7 5.5 -12.5t13.5 -5.5h168 q31 0 53.5 -22.5t22.5 -53.5v-81z" />
<glyph unicode="&#xf6e5;" horiz-adv-x="310" d="M260 183h-210v57h210v-57z" />
<glyph unicode="&#xf6e6;" horiz-adv-x="310" d="M260 424h-210v57h210v-57z" />
<glyph unicode="&#xf6e8;" horiz-adv-x="220" d="M140 240h-60v120h60v-120z" />
<glyph unicode="&#xf6f9;" horiz-adv-x="400" d="M370 0h-281v210h-89v61h89v209h61v-209h121v-61h-121v-150h220v-60z" />
<glyph unicode="&#xf6fa;" horiz-adv-x="761" d="M701 60v-60h-151q-82 0 -129 65q-47 -65 -130 -65h-71q-66 0 -113 46.5t-47 113.5v160q0 67 47 113.5t113 46.5h481v-60h-250v-150h250v-60h-250v-50q0 -41 29 -70.5t70 -29.5h151zM390 160v260h-170q-41 0 -70 -29.5t-29 -70.5v-160q0 -41 29 -70.5t70 -29.5h71 q41 0 70 29.5t29 70.5z" />
<glyph unicode="&#xf721;" horiz-adv-x="230" d="M160 0h-60v120h60v-120zM160 200h-60v360h60v-360z" />
<glyph unicode="&#xf726;" horiz-adv-x="570" d="M500 80q0 -33 -23.5 -56.5t-56.5 -23.5h-117v-80h-60v80h-113q-33 0 -56.5 23.5t-23.5 56.5v119q0 33 23.5 56.5t56.5 23.5h113v121q0 33 23.5 56.5t56.5 23.5h97q33 0 56.5 -23.5t23.5 -56.5v-101q0 -33 -23.5 -56.5t-56.5 -23.5h-117v-159h117q8 0 14 6t6 14v80h60v-80 zM440 299v101q0 8 -6 14t-14 6h-97q-8 0 -14 -6t-6 -14v-121h117q8 0 14 6t6 14zM243 60v159h-113q-8 0 -14 -6t-6 -14v-119q0 -8 6 -14t14 -6h113z" />
<glyph unicode="&#xf731;" horiz-adv-x="240" d="M170 0h-60v420h-85v60h145v-480z" />
<glyph unicode="&#xf732;" horiz-adv-x="500" d="M414 0h-344v191q0 33 23.5 56.5t56.5 23.5h200q8 0 14 5.5t6 13.5v110q0 8 -6 14t-14 6h-263v60h263q33 0 56.5 -23.5t23.5 -56.5v-110q0 -33 -23.5 -56.5t-56.5 -23.5h-200q-8 0 -14 -5.5t-6 -13.5v-131h284v-60z" />
<glyph unicode="&#xf733;" horiz-adv-x="490" d="M430 0q0 -67 -47 -113.5t-113 -46.5h-210v60h210q41 0 70.5 29.5t29.5 70.5v71q0 41 -29.5 70.5t-70.5 29.5h-210v60h210q13 0 19 -1v170q0 8 -6 14t-14 6h-209v60h209q33 0 56.5 -23.5t23.5 -56.5v-190q37 -21 59 -58t22 -81v-71z" />
<glyph unicode="&#xf734;" horiz-adv-x="540" d="M510 0h-80v-160h-61v160h-359l250 480h68l-219 -419h260v179h61v-179h80v-61z" />
<glyph unicode="&#xf735;" horiz-adv-x="540" d="M470 0q0 -67 -47 -113.5t-113 -46.5h-239v60h239q41 0 70 29t29 71v60q0 42 -29 71t-70 29h-240v320h360v-60h-299v-200h179q66 0 113 -46.5t47 -113.5v-60z" />
<glyph unicode="&#xf737;" horiz-adv-x="490" d="M480 480l-331 -640h-68l300 580h-341v60h440z" />
<glyph unicode="&#xf739;" horiz-adv-x="550" d="M490 0q0 -67 -47 -113.5t-113 -46.5h-234v60h234q41 0 70.5 29.5t29.5 70.5v100h-210q-66 0 -113 46.5t-47 113.5v60q0 67 47 113.5t113 46.5h110q66 0 113 -46.5t47 -113.5v-320zM429 160v160q0 42 -29 71t-70 29h-110q-41 0 -70 -29t-29 -71v-60q0 -42 29 -71t70 -29 h209z" />
<glyph unicode="&#xf73f;" horiz-adv-x="430" d="M170 0h-60v120h60v-120zM380 380q0 -33 -23.5 -56.5t-56.5 -23.5h-110q-8 0 -14 -6t-6 -14v-80h-60v80q0 33 23.5 56.5t56.5 23.5h110q8 0 14 6t6 14v100q0 8 -6 14t-14 6h-230v60h230q33 0 56.5 -23.5t23.5 -56.5v-100z" />
<glyph unicode="&#xf761;" horiz-adv-x="520" d="M450 0h-61v179h-258v-179h-61v320q0 67 47 113.5t113 46.5h60q66 0 113 -46.5t47 -113.5v-320zM389 239v81q0 41 -29 70.5t-70 29.5h-60q-41 0 -70 -29.5t-29 -70.5v-81h258z" />
<glyph unicode="&#xf762;" horiz-adv-x="490" d="M440 80q0 -33 -23.5 -56.5t-56.5 -23.5h-290v480h226q33 0 56.5 -23.5t23.5 -56.5v-111q27 -6 45.5 -28t18.5 -51v-130zM316 400q0 8 -6 14t-14 6h-165v-130h185v110zM380 80v130q0 8 -6 14t-14 6h-229v-169h229q8 0 14 5.5t6 13.5z" />
<glyph unicode="&#xf764;" horiz-adv-x="520" d="M460 160q0 -67 -47 -113.5t-113 -46.5h-230v480h230q66 0 113 -46.5t47 -113.5v-160zM399 160v160q0 41 -29 70.5t-70 29.5h-170v-360h170q41 0 70 29.5t29 70.5z" />
<glyph unicode="&#xf765;" horiz-adv-x="450" d="M390 0h-240q-33 0 -56.5 23.5t-23.5 56.5v400h320v-60h-260v-149h260v-61h-260v-130q0 -8 6 -13.5t14 -5.5h240v-61z" />
<glyph unicode="&#xf766;" horiz-adv-x="450" d="M390 210h-260v-210h-60v480h320v-60h-260v-149h260v-61z" />
<glyph unicode="&#xf767;" horiz-adv-x="510" d="M440 0h-300q-33 0 -56.5 23.5t-23.5 56.5v240q0 67 47 113.5t113 46.5h220v-60h-220q-41 0 -70 -29.5t-29 -70.5v-241q0 -8 6 -13.5t14 -5.5h239v172h60v-232z" />
<glyph unicode="&#xf768;" horiz-adv-x="520" d="M390 480h60v-480h-60v210h-259v-210h-61v480h61v-210h259v210z" />
<glyph unicode="&#xf76a;" horiz-adv-x="360" d="M290 160q0 -67 -47 -113.5t-113 -46.5h-80v60h80q41 0 70 29.5t29 70.5v320h61v-320z" />
<glyph unicode="&#xf76c;" horiz-adv-x="380" d="M350 0h-280v480h61v-420h219v-60z" />
<glyph unicode="&#xf76e;" horiz-adv-x="550" d="M480 0h-40q-50 0 -71 35l-238 376v-411h-61v480h40q50 0 71 -35l239 -377v412h60v-480z" />
<glyph unicode="&#xf770;" horiz-adv-x="440" d="M390 239q0 -33 -23.5 -56.5t-56.5 -23.5h-179v-159h-61v480h240q33 0 56.5 -23.5t23.5 -56.5v-161zM330 239v161q0 8 -6 14t-14 6h-179v-200h179q8 0 14 5.5t6 13.5z" />
<glyph unicode="&#xf771;" horiz-adv-x="510" d="M450 160q0 -67 -47 -113.5t-113 -46.5h-5v-200h-60v200h-5q-66 0 -113 46.5t-47 113.5v160q0 67 47 113.5t113 46.5h70q66 0 113 -46.5t47 -113.5v-160zM389 160v160q0 41 -29 70.5t-70 29.5h-70q-41 0 -70 -29.5t-29 -70.5v-160q0 -41 29 -70.5t70 -29.5h70 q41 0 70 29.5t29 70.5z" />
<glyph unicode="&#xf772;" horiz-adv-x="490" d="M440 0h-60v210q0 8 -6 14t-14 6h-229v-230h-61v480h226q33 0 56.5 -23.5t23.5 -56.5v-111q27 -6 45.5 -28t18.5 -51v-210zM316 290v110q0 8 -6 14t-14 6h-165v-130h185z" />
<glyph unicode="&#xf774;" horiz-adv-x="460" d="M430 420h-170v-420h-60v420h-170v60h400v-60z" />
<glyph unicode="&#xf779;" horiz-adv-x="480" d="M420 278q0 -48 -34 -82t-82 -34h-34v-162h-60v162h-34q-48 0 -82 34t-34 82v202h60v-202q0 -23 16.5 -39.5t39.5 -16.5h128q23 0 39.5 16.5t16.5 39.5v202h60v-202z" />
<glyph unicode="&#xf7a1;" horiz-adv-x="230" d="M130 -80h-60v360h60v-360zM130 360h-60v120h60v-120z" />
<glyph unicode="&#xf7a2;" horiz-adv-x="400" d="M350 81h-79v-81h-61v81q-66 0 -113 46.5t-47 113.5v79q0 67 47 113.5t113 46.5v80h61v-80h79v-60h-140q-41 0 -70 -29.5t-29 -70.5v-79q0 -41 29 -70.5t70 -29.5h140v-60z" />
<glyph unicode="&#xf7bf;" horiz-adv-x="430" d="M260 480h60v-120h-60v120zM50 100q0 33 23.5 56.5t56.5 23.5h110q8 0 14 6t6 14v80h60v-80q0 -33 -23.5 -56.5t-56.5 -23.5h-110q-8 0 -14 -6t-6 -14v-100q0 -8 6 -14t14 -6h230v-60h-230q-33 0 -56.5 23.5t-23.5 56.5v100z" />
<glyph unicode="&#xf7e6;" horiz-adv-x="720" d="M670 0h-220q-33 0 -56.5 23.5t-23.5 56.5v99h-239v-179h-61v320q0 67 47 113.5t113 46.5h440v-60h-240v-149h240v-61h-240v-130q0 -8 6 -13.5t14 -5.5h220v-61zM370 239v181h-140q-41 0 -70 -29.5t-29 -70.5v-81h239z" />
<glyph unicode="&#xf7f0;" d="M460 160q0 -67 -47 -113.5t-113 -46.5h-230v210h-70v61h70v209h230q66 0 113 -46.5t47 -113.5v-160zM261 210h-131v-150h170q41 0 70 29.5t29 70.5v160q0 41 -29 70.5t-70 29.5h-170v-149h131v-61z" />
<glyph unicode="&#xf7fe;" horiz-adv-x="430" d="M380 260q0 -33 -23.5 -56.5t-56.5 -23.5h-169v-180h-61v640h61v-160h169q33 0 56.5 -23.5t23.5 -56.5v-140zM320 260v140q0 8 -6 13.5t-14 5.5h-169v-179h169q8 0 14 6t6 14z" />
<glyph horiz-adv-x="280" />
<glyph horiz-adv-x="520" d="M450 0h-61v179h-258v-179h-61v320q0 67 47 113.5t113 46.5h60q66 0 113 -46.5t47 -113.5v-320zM389 239v81q0 41 -29 70.5t-70 29.5h-60q-41 0 -70 -29.5t-29 -70.5v-81h258zM374 720l-101 -160h-60l101 160h60z" />
<glyph horiz-adv-x="520" d="M450 0h-61v179h-258v-179h-61v320q0 67 47 113.5t113 46.5h60q66 0 113 -46.5t47 -113.5v-320zM131 239h258v81q0 41 -29 70.5t-70 29.5h-60q-41 0 -70 -29.5t-29 -70.5v-81zM392 560h-60l-71 113l-71 -113h-60l101 160h59z" />
<glyph horiz-adv-x="520" d="M450 0h-61v179h-258v-179h-61v320q0 67 47 113.5t113 46.5h60q66 0 113 -46.5t47 -113.5v-320zM131 239h258v81q0 41 -29 70.5t-70 29.5h-60q-41 0 -70 -29.5t-29 -70.5v-81zM211 583h-58v57h58v-57zM367 583h-58v57h58v-57z" />
<glyph horiz-adv-x="520" d="M450 0h-61v179h-258v-179h-61v320q0 67 47 113.5t113 46.5h60q66 0 113 -46.5t47 -113.5v-320zM131 239h258v81q0 41 -29 70.5t-70 29.5h-60q-41 0 -70 -29.5t-29 -70.5v-81zM294 560h-61l-101 160h61z" />
<glyph horiz-adv-x="520" d="M450 0h-61v179h-258v-179h-61v320q0 67 47 113.5t113 46.5h60q66 0 113 -46.5t47 -113.5v-320zM131 239h258v81q0 41 -29 70.5t-70 29.5h-60q-41 0 -70 -29.5t-29 -70.5v-81zM380 640q0 -33 -23.5 -56.5t-56.5 -23.5h-80q-33 0 -56.5 23.5t-23.5 56.5v80q0 33 23.5 56.5 t56.5 23.5h80q33 0 56.5 -23.5t23.5 -56.5v-80zM329 611v138h-138v-138h138z" />
<glyph horiz-adv-x="520" d="M450 0h-61v179h-258v-179h-61v320q0 67 47 113.5t113 46.5h60q66 0 113 -46.5t47 -113.5v-320zM131 239h258v81q0 41 -29 70.5t-70 29.5h-60q-41 0 -70 -29.5t-29 -70.5v-81zM412 564h-97q-33 0 -56.5 23.5t-23.5 56.5q0 8 -6 14t-14 6h-103v56h99q33 0 56.5 -24 t23.5 -57q0 -8 6 -14t14 -6h101v-55z" />
<glyph horiz-adv-x="500" d="M434 0h-214q-66 0 -113 46.5t-47 113.5v160q0 67 47 113.5t113 46.5h140q33 0 56.5 -23.5t23.5 -56.5v-80h-60v80q0 8 -6 14t-14 6h-140q-41 0 -70 -29.5t-29 -70.5v-160q0 -41 29 -70.5t70 -29.5h214v-60z" />
<glyph horiz-adv-x="500" d="M312 -120q0 -33 -23.5 -56.5t-56.5 -23.5h-80v55h80q11 0 18 7t7 18v120h-37q-66 0 -113 46.5t-47 113.5v160q0 67 47 113.5t113 46.5h140q33 0 56.5 -23.5t23.5 -56.5v-80h-60v80q0 8 -6 14t-14 6h-140q-41 0 -70 -29.5t-29 -70.5v-160q0 -41 29 -70.5t70 -29.5h214v-60 h-122v-120z" />
<glyph horiz-adv-x="450" d="M390 0h-240q-33 0 -56.5 23.5t-23.5 56.5v400h320v-60h-260v-149h260v-61h-260v-130q0 -8 6 -13.5t14 -5.5h240v-61zM354 720l-101 -160h-60l101 160h60z" />
<glyph horiz-adv-x="450" d="M390 0h-240q-33 0 -56.5 23.5t-23.5 56.5v400h320v-60h-260v-149h260v-61h-260v-130q0 -8 6 -13.5t14 -5.5h240v-61zM362 560h-60l-71 113l-71 -113h-60l101 160h59z" />
<glyph horiz-adv-x="450" d="M390 0h-240q-33 0 -56.5 23.5t-23.5 56.5v400h320v-60h-260v-149h260v-61h-260v-130q0 -8 6 -13.5t14 -5.5h240v-61zM181 583h-58v57h58v-57zM337 583h-58v57h58v-57z" />
<glyph horiz-adv-x="450" d="M390 0h-240q-33 0 -56.5 23.5t-23.5 56.5v400h320v-60h-260v-149h260v-61h-260v-130q0 -8 6 -13.5t14 -5.5h240v-61zM284 560h-61l-101 160h61z" />
<glyph horiz-adv-x="510" d="M450 0h-142q-45 0 -82.5 24.5t-55.5 64.5h-120v57h106v108h-106v57h119q18 40 55.5 64.5t83.5 24.5h142v-57h-142q-39 0 -66.5 -27.5t-27.5 -67.5v-19h235v-57h-235v-20q0 -39 27.5 -67t66.5 -28h142v-57z" />
<glyph horiz-adv-x="560" d="M329 420q-41 0 -70 -29.5t-29 -70.5v-50h260v-60h-260v-50q0 -41 29 -70.5t70 -29.5h161v-60h-161q-55 0 -98 34t-57 86h-124v60h119v120h-119v60h124q14 52 56.5 86t98.5 34h161v-60h-161z" />
<glyph horiz-adv-x="510" d="M450 241h-142q-45 0 -82.5 24.5t-55.5 64.5h-120v57h106v108h-106v57h119q18 40 55.5 64.5t83.5 24.5h142v-57h-142q-39 0 -66.5 -27.5t-27.5 -67.5v-19h235v-57h-235v-20q0 -39 27.5 -67t66.5 -28h142v-57z" />
<glyph horiz-adv-x="600" d="M510 160h-161q-55 0 -98 34t-57 86h-124v60h119v120h-119v60h124q14 52 56.5 86t98.5 34h161v-60h-161q-41 0 -70 -29.5t-29 -70.5v-50h260v-60h-260v-50q0 -41 29 -70.5t70 -29.5h161v-60z" />
<glyph horiz-adv-x="200" d="M130 0h-60v480h60v-480z" />
<glyph horiz-adv-x="200" d="M130 0h-60v480h60v-480zM221 720l-101 -160h-60l101 160h60z" />
<glyph horiz-adv-x="200" d="M130 0h-60v480h60v-480zM231 560h-60l-71 112l-70 -112h-60l100 160h59z" />
<glyph horiz-adv-x="200" d="M130 0h-60v480h60v-480zM53 583h-58v57h58v-57zM205 583h-58v57h58v-57z" />
<glyph horiz-adv-x="200" d="M130 0h-60v480h60v-480zM131 560h-60l-101 160h60z" />
<glyph horiz-adv-x="510" d="M337 282q48 -17 78 -58.5t30 -93.5v-130h-61v130q0 41 -29 70.5t-70 29.5h-155v-230h-60v480h60v-190h141l118 190h71z" />
<glyph horiz-adv-x="780" d="M550 480q66 0 113 -46.5t47 -113.5v-320h-61v320q0 41 -29 70.5t-70 29.5h-129v-420h-61v420h-229v-420h-61v480h480z" />
<glyph d="M460 0h-61v480q0 41 -29 70.5t-71 29.5h-168v-580h-61v640h230q66 0 113 -46.5t47 -113.5v-480z" />
<glyph d="M460 0h-61v480q0 41 -29 70.5t-71 29.5h-168v-580h-61v640h230q66 0 113 -46.5t47 -113.5v-480zM415 720h-97q-33 0 -56.5 23.5t-23.5 56.5q0 8 -6 14t-14 6h-103v56h99q33 0 56.5 -24t23.5 -57q0 -8 6 -14t14 -6h101v-55z" />
<glyph horiz-adv-x="550" d="M480 0h-40q-50 0 -71 35l-238 376v-411h-61v480h40q50 0 71 -35l239 -377v412h60v-480zM415 564h-97q-33 0 -56.5 23.5t-23.5 56.5q0 8 -6 14t-14 6h-103v56h99q33 0 56.5 -24t23.5 -57q0 -8 6 -14t14 -6h101v-55z" />
<glyph horiz-adv-x="510" d="M450 160q0 -67 -47 -113.5t-113 -46.5h-70q-66 0 -113 46.5t-47 113.5v160q0 67 47 113.5t113 46.5h70q66 0 113 -46.5t47 -113.5v-160zM389 160v160q0 41 -29 70.5t-70 29.5h-70q-41 0 -70 -29.5t-29 -70.5v-160q0 -41 29 -70.5t70 -29.5h70q41 0 70 29.5t29 70.5z" />
<glyph horiz-adv-x="510" d="M450 160q0 -67 -47 -113.5t-113 -46.5h-70q-66 0 -113 46.5t-47 113.5v160q0 67 47 113.5t113 46.5h70q66 0 113 -46.5t47 -113.5v-160zM389 160v160q0 41 -29 70.5t-70 29.5h-70q-41 0 -70 -29.5t-29 -70.5v-160q0 -41 29 -70.5t70 -29.5h70q41 0 70 29.5t29 70.5z M374 720l-101 -160h-60l101 160h60z" />
<glyph horiz-adv-x="510" d="M450 160q0 -67 -47 -113.5t-113 -46.5h-70q-66 0 -113 46.5t-47 113.5v160q0 67 47 113.5t113 46.5h70q66 0 113 -46.5t47 -113.5v-160zM389 160v160q0 41 -29 70.5t-70 29.5h-70q-41 0 -70 -29.5t-29 -70.5v-160q0 -41 29 -70.5t70 -29.5h70q41 0 70 29.5t29 70.5z M386 560h-60l-71 113l-71 -113h-60l101 160h59z" />
<glyph horiz-adv-x="510" d="M450 160q0 -67 -47 -113.5t-113 -46.5h-70q-66 0 -113 46.5t-47 113.5v160q0 67 47 113.5t113 46.5h70q66 0 113 -46.5t47 -113.5v-160zM389 160v160q0 41 -29 70.5t-70 29.5h-70q-41 0 -70 -29.5t-29 -70.5v-160q0 -41 29 -70.5t70 -29.5h70q41 0 70 29.5t29 70.5z M206 583h-58v57h58v-57zM362 583h-58v57h58v-57z" />
<glyph horiz-adv-x="510" d="M450 160q0 -67 -47 -113.5t-113 -46.5h-70q-66 0 -113 46.5t-47 113.5v160q0 67 47 113.5t113 46.5h70q66 0 113 -46.5t47 -113.5v-160zM389 160v160q0 41 -29 70.5t-70 29.5h-70q-41 0 -70 -29.5t-29 -70.5v-160q0 -41 29 -70.5t70 -29.5h70q41 0 70 29.5t29 70.5z M294 560h-61l-101 160h61z" />
<glyph horiz-adv-x="510" d="M461 462l-39 -50q28 -40 28 -92v-160q0 -67 -47 -113.5t-113 -46.5h-70q-49 0 -91 29l-34 -44l-45 34l39 50q-29 42 -29 91v160q0 67 47 113.5t113 46.5h70q52 0 92 -29l34 45zM346 404q-26 16 -56 16h-70q-41 0 -70 -29.5t-29 -70.5v-160q0 -19 8 -38zM389 160v160 q0 22 -7 39l-217 -282q27 -17 55 -17h70q41 0 70 29.5t29 70.5z" />
<glyph horiz-adv-x="510" d="M450 160q0 -67 -47 -113.5t-113 -46.5h-70q-66 0 -113 46.5t-47 113.5v160q0 67 47 113.5t113 46.5h70q66 0 113 -46.5t47 -113.5v-160zM389 160v160q0 41 -29 70.5t-70 29.5h-70q-41 0 -70 -29.5t-29 -70.5v-160q0 -41 29 -70.5t70 -29.5h70q41 0 70 29.5t29 70.5z M412 564h-97q-33 0 -56.5 23.5t-23.5 56.5q0 8 -6 14t-14 6h-103v56h99q33 0 56.5 -24t23.5 -57q0 -8 6 -14t14 -6h101v-55z" />
<glyph horiz-adv-x="510" d="M467 0h-72l-166 259h-99v-259h-60v640h230q66 0 113 -46.5t47 -113.5v-61q0 -66 -46.5 -112.5t-112.5 -47.5zM400 419v61q0 41 -29.5 70.5t-70.5 29.5h-170v-261h170q41 0 70.5 29.5t29.5 70.5z" />
<glyph horiz-adv-x="510" d="M460 0h-71l-120 190h-138v-190h-61v480h287q33 0 56.5 -23.5t23.5 -56.5v-130q0 -33 -23.5 -56.5t-56.5 -23.5h-16zM377 270v130q0 8 -6 14t-14 6h-226v-169h226q8 0 14 5.5t6 13.5z" />
<glyph horiz-adv-x="460" d="M400 80q0 -33 -23.5 -56.5t-56.5 -23.5h-244v60h244q8 0 14 6t6 14v120q0 8 -6 14t-14 6h-180q-33 0 -56.5 23.5t-23.5 56.5v100q0 33 23.5 56.5t56.5 23.5h253v-60h-253q-8 0 -14 -6t-6 -14v-100q0 -8 6 -14t14 -6h180q33 0 56.5 -23.5t23.5 -56.5v-120z" />
<glyph horiz-adv-x="920" d="M400 80q0 -33 -23.5 -56.5t-56.5 -23.5h-244v60h244q8 0 14 6t6 14v120q0 8 -6 14t-14 6h-180q-33 0 -56.5 23.5t-23.5 56.5v100q0 33 23.5 56.5t56.5 23.5h253v-60h-253q-8 0 -14 -6t-6 -14v-100q0 -8 6 -14t14 -6h180q33 0 56.5 -23.5t23.5 -56.5v-120zM860 80 q0 -33 -23.5 -56.5t-56.5 -23.5h-244v60h244q8 0 14 6t6 14v120q0 8 -6 14t-14 6h-180q-33 0 -56.5 23.5t-23.5 56.5v100q0 33 23.5 56.5t56.5 23.5h253v-60h-253q-8 0 -14 -6t-6 -14v-100q0 -8 6 -14t14 -6h180q33 0 56.5 -23.5t23.5 -56.5v-120z" />
<glyph horiz-adv-x="460" d="M400 80q0 -33 -23.5 -56.5t-56.5 -23.5h-244v60h244q8 0 14 6t6 14v130q0 8 -6 14t-14 6h-180q-33 0 -56.5 23.5t-23.5 56.5v90q0 33 23.5 56.5t56.5 23.5h253v-60h-253q-8 0 -14 -6t-6 -14v-90q0 -8 6 -14t14 -6h180q33 0 56.5 -23.5t23.5 -56.5v-130zM371 720 l-101 -160h-59l-102 160h60l71 -111l71 111h60z" />
<glyph d="M300 0h-70q-66 0 -113 46.5t-47 113.5v320h61v-320q0 -41 29 -70.5t70 -29.5h70q41 0 70 29.5t29 70.5v320h61v-320q0 -67 -47 -113.5t-113 -46.5z" />
<glyph d="M300 0h-70q-66 0 -113 46.5t-47 113.5v320h61v-320q0 -41 29 -70.5t70 -29.5h70q41 0 70 29.5t29 70.5v320h61v-320q0 -67 -47 -113.5t-113 -46.5zM383 720l-101 -160h-60l101 160h60z" />
<glyph d="M300 0h-70q-66 0 -113 46.5t-47 113.5v320h61v-320q0 -41 29 -70.5t70 -29.5h70q41 0 70 29.5t29 70.5v320h61v-320q0 -67 -47 -113.5t-113 -46.5zM304 560h-60l-101 160h60z" />
<glyph d="M300 0h-70q-66 0 -113 46.5t-47 113.5v320h61v-320q0 -41 29 -70.5t70 -29.5h70q41 0 70 29.5t29 70.5v320h61v-320q0 -67 -47 -113.5t-113 -46.5zM396 560h-60l-71 112l-71 -112h-60l101 160h59z" />
<glyph d="M300 0h-70q-66 0 -113 46.5t-47 113.5v320h61v-320q0 -41 29 -70.5t70 -29.5h70q41 0 70 29.5t29 70.5v320h61v-320q0 -67 -47 -113.5t-113 -46.5zM216 583h-58v57h58v-57zM372 583h-58v57h58v-57z" />
<glyph d="M400 640h60v-355q0 -92 -44 -168t-117 -117h-69q-73 40 -116.5 116.5t-43.5 168.5v355h60v-358q0 -77 37 -141t98 -95q60 31 97.5 95t37.5 141v358zM400 640h60v-355q0 -92 -44 -168t-117 -117h-69q-73 40 -116.5 116.5t-43.5 168.5v355h60v-358q0 -77 37 -141t98 -95 q60 31 97.5 95t37.5 141v358z" />
<glyph d="M460 160q0 -67 -47 -113.5t-113 -46.5h-230v480h61v-420h169q41 0 70 29.5t29 70.5v320h61v-320z" />
<glyph horiz-adv-x="780" d="M710 160q0 -67 -47 -113.5t-113 -46.5h-320q-66 0 -113 46.5t-47 113.5v320h61v-320q0 -41 29 -70.5t70 -29.5h130v420h61v-420h129q41 0 70 29.5t29 70.5v320h61v-320z" />
<glyph d="M460 0h-60v145q0 35 -25 60t-60 25h-100q-35 0 -60 -25t-25 -60v-145h-60v141q0 77 62 119q-62 42 -62 119v101h60v-106q0 -35 25 -59.5t60 -24.5h100q35 0 60 24.5t25 59.5v106h60v-101q0 -76 -63 -119q63 -43 63 -119v-141z" />
<glyph horiz-adv-x="480" d="M363 720l-101 -160h-60l101 160h60zM420 278q0 -48 -34 -82t-82 -34h-34v-162h-60v162h-34q-48 0 -82 34t-34 82v202h60v-202q0 -23 16.5 -39.5t39.5 -16.5h128q23 0 39.5 16.5t16.5 39.5v202h60v-202z" />
<glyph horiz-adv-x="480" d="M191 583h-58v57h58v-57zM347 583h-58v57h58v-57zM420 278q0 -48 -34 -82t-82 -34h-34v-162h-60v162h-34q-48 0 -82 34t-34 82v202h60v-202q0 -23 16.5 -39.5t39.5 -16.5h128q23 0 39.5 16.5t16.5 39.5v202h60v-202z" />
<glyph horiz-adv-x="510" d="M470 480l-310 -420h278v-60h-398l310 420h-278v60h398z" />
<glyph horiz-adv-x="510" d="M470 480l-310 -420h278v-60h-398l310 420h-278v60h398zM391 720l-101 -160h-59l-102 160h60l71 -111l71 111h60z" />
<glyph horiz-adv-x="360" d="M330 339l-23 -38l-105 60v-121h-45v121l-104 -60l-23 38l105 61l-105 61l23 38l104 -60v121h45v-121l105 60l23 -38l-105 -61z" />
<glyph horiz-adv-x="290" d="M240 -80q-66 0 -113.5 47t-47.5 113v80l-79 80l79 80v80q0 66 47.5 113t113.5 47v-60q-41 0 -70.5 -29.5t-29.5 -70.5v-104l-55 -56l55 -57v-103q0 -41 29.5 -70.5t70.5 -29.5v-60z" />
<glyph horiz-adv-x="290" d="M290 240l-79 -80v-80q0 -66 -47.5 -113t-113.5 -47v60q41 0 70.5 29.5t29.5 70.5v103l55 57l-55 56v104q0 41 -29.5 70.5t-70.5 29.5v60q66 0 113.5 -47t47.5 -113v-80z" />
<glyph horiz-adv-x="300" d="M250 -79h-180v640h180v-60h-120v-519h120v-61z" />
<glyph horiz-adv-x="300" d="M230 -79h-180v61h120v519h-120v60h180v-640z" />
<glyph horiz-adv-x="600" d="M450 81h-79v-81h-61v81q-66 0 -113 46.5t-47 113.5v79q0 67 47 113.5t113 46.5v80h61v-80h79v-60h-140q-41 0 -70 -29.5t-29 -70.5v-79q0 -41 29 -70.5t70 -29.5h140v-60z" />
<glyph horiz-adv-x="340" d="M310 280q0 -33 -23 -56.5t-57 -23.5h-120q-33 0 -56.5 23.5t-23.5 56.5v120q0 33 23.5 56.5t56.5 23.5h120q34 0 57 -23.5t23 -56.5v-120zM249 261v158h-158v-158h158z" />
<glyph horiz-adv-x="410" d="M360 80q0 -33 -23.5 -56.5t-56.5 -23.5h-44v-80h-61v80h-109v60h214q8 0 14 6t6 14v110q0 8 -6 14t-14 6h-150q-33 0 -56.5 23.5t-23.5 56.5v110q0 33 23.5 56.5t56.5 23.5h45v80h61v-80h118v-60h-224q-8 0 -14 -6t-6 -14v-110q0 -8 6 -14t14 -6h150q33 0 56.5 -23.5 t23.5 -56.5v-110z" />
<glyph horiz-adv-x="420" d="M370 316q0 -32 -22 -54t-54 -22h-55v-80h-57v80h-117v57h229q8 0 13.5 5.5t5.5 13.5v81q0 7 -6 12.5t-13 5.5h-168q-32 0 -54 22.5t-22 53.5v73q0 32 22 54t54 22h56v80h57v-80h125v-57h-238q-8 0 -13.5 -5.5t-5.5 -13.5v-73q0 -7 5.5 -12.5t13.5 -5.5h168 q31 0 53.5 -22.5t22.5 -53.5v-81z" />
<glyph horiz-adv-x="600" d="M455 240q0 -33 -23.5 -56.5t-56.5 -23.5h-44v-80h-61v80h-109v60h214q8 0 14 6t6 14v110q0 8 -6 14t-14 6h-150q-33 0 -56.5 23.5t-23.5 56.5v110q0 33 23.5 56.5t56.5 23.5h45v80h61v-80h118v-60h-224q-8 0 -14 -6t-6 -14v-110q0 -8 6 -14t14 -6h150q33 0 56.5 -23.5 t23.5 -56.5v-110z" />
<glyph horiz-adv-x="510" d="M450 0h-230q-66 0 -113 46.5t-47 113.5v160q0 67 47 113.5t113 46.5h230v-60h-230q-41 0 -70 -29.5t-29 -70.5v-50h329v-60h-329v-50q0 -41 29 -70.5t70 -29.5h230v-60z" />
<glyph horiz-adv-x="580" d="M469 355q61 -48 61 -126v-69q0 -67 -47 -113.5t-113 -46.5h-160q-66 0 -113 46.5t-47 113.5v69q0 79 62 126v205q0 33 23.5 56.5t56.5 23.5h197q33 0 56.5 -23.5t23.5 -56.5v-205zM172 560v-176q20 5 38 5h160q17 0 39 -5v176q0 8 -6 14t-14 6h-197q-8 0 -14 -6t-6 -14z M470 160v69q0 41 -29.5 70.5t-70.5 29.5h-160q-41 0 -70.5 -29.5t-29.5 -70.5v-69q0 -41 29.5 -70.5t70.5 -29.5h160q41 0 70.5 29.5t29.5 70.5z" />
<glyph horiz-adv-x="600" d="M479 355q61 -48 61 -126v-69q0 -67 -47 -113.5t-113 -46.5h-160q-66 0 -113 46.5t-47 113.5v69q0 79 62 126v205q0 33 23.5 56.5t56.5 23.5h197q33 0 56.5 -23.5t23.5 -56.5v-205zM182 560v-176q20 5 38 5h160q17 0 39 -5v176q0 8 -6 14t-14 6h-197q-8 0 -14 -6t-6 -14z M480 160v69q0 41 -29.5 70.5t-70.5 29.5h-160q-41 0 -70.5 -29.5t-29.5 -70.5v-69q0 -41 29.5 -70.5t70.5 -29.5h160q41 0 70.5 29.5t29.5 70.5z" />
<glyph horiz-adv-x="600" d="M500 160q0 -67 -47 -113.5t-113 -46.5h-239v60h239q41 0 70 29t29 71v60q0 42 -29 71t-70 29h-240v320h360v-60h-299v-200h179q66 0 113 -46.5t47 -113.5v-60z" />
<glyph horiz-adv-x="390" d="M340 152h-116v-73q0 -63 -44.5 -107.5t-107.5 -44.5h-22v57h22q39 0 66.5 28t27.5 67v73h-94v57h94v39q0 64 44.5 108t107.5 44h22v-57h-22q-39 0 -66.5 -28t-27.5 -67v-39h116v-57z" />
<glyph horiz-adv-x="410" d="M360 420h-26q-41 0 -70 -29.5t-29 -70.5v-51h125v-60h-125v-129q0 -67 -47 -113.5t-113 -46.5h-25v60h25q41 0 70 29.5t29 70.5v129h-99v60h99v51q0 67 47 113.5t113 46.5h26v-60z" />
<glyph horiz-adv-x="390" d="M340 393h-116v-73q0 -63 -44.5 -107.5t-107.5 -44.5h-22v57h22q39 0 66.5 28t27.5 67v73h-94v57h94v39q0 64 44.5 108t107.5 44h22v-57h-22q-39 0 -66.5 -28t-27.5 -67v-39h116v-57z" />
<glyph horiz-adv-x="600" d="M455 369h-125v-129q0 -67 -47 -113.5t-113 -46.5h-25v60h25q41 0 70 29.5t29 70.5v129h-99v60h99v51q0 67 47 113.5t113 46.5h26v-60h-26q-41 0 -70 -29.5t-29 -70.5v-51h125v-60z" />
<glyph horiz-adv-x="600" d="M540 160h-80v-160h-61v160h-359l250 480h68l-219 -419h260v179h61v-179h80v-61z" />
<glyph d="M460 -200h-61v100q0 41 -29 70.5t-70 29.5h-150q-33 0 -56.5 23.5t-23.5 56.5v320q0 33 23.5 56.5t56.5 23.5h310v-218q0 -33 -23.5 -56.5t-56.5 -23.5h-250v-103q0 -8 6 -13.5t14 -5.5h150q66 0 113 -46.5t47 -113.5v-100zM400 261v159h-250q-8 0 -14 -5.5t-6 -13.5 v-159h250q8 0 14 5.5t6 13.5z" />
<glyph horiz-adv-x="600" d="M515 160q0 -67 -47 -113.5t-113 -46.5h-234v60h234q41 0 70.5 29.5t29.5 70.5v100h-210q-66 0 -113 46.5t-47 113.5v60q0 67 47 113.5t113 46.5h110q66 0 113 -46.5t47 -113.5v-320zM454 320v160q0 42 -29 71t-70 29h-110q-41 0 -70 -29t-29 -71v-60q0 -42 29 -71t70 -29 h209z" />
<glyph horiz-adv-x="470" d="M420 95h-79v-95h-58v95h-95v-95h-57v95h-81v58h81v96h-81v57h81v94h57v-94h95v94h58v-94h79v-57h-79v-96h79v-58zM285 151v99h-99v-99h99z" />
<glyph horiz-adv-x="470" d="M420 335h-79v-95h-58v95h-95v-95h-57v95h-81v58h81v96h-81v57h81v94h57v-94h95v94h58v-94h79v-57h-79v-96h79v-58zM285 391v99h-99v-99h99z" />
<glyph horiz-adv-x="600" d="M500 240h-80v-160h-61v160h-119v-160h-60v160h-80v61h80v119h-80v60h80v160h60v-160h119v160h61v-160h80v-60h-80v-119h80v-61zM361 299v123h-123v-123h123z" />
<glyph horiz-adv-x="600" d="M367 0h-60v580h-115v60h175v-640z" />
<glyph horiz-adv-x="320" d="M280 -81h-50q-66 0 -113 46.5t-47 113.5v321q0 67 47 113.5t113 46.5h50v-60h-50q-41 0 -70.5 -29.5t-29.5 -70.5v-321q0 -41 29.5 -70t70.5 -29h50v-61z" />
<glyph horiz-adv-x="320" d="M250 80q0 -67 -47 -113.5t-113 -46.5h-50v60h50q41 0 70.5 29.5t29.5 70.5v320q0 41 -29.5 70t-70.5 29h-50v61h50q66 0 113 -46.5t47 -113.5v-320z" />
<glyph horiz-adv-x="600" d="M630 80q0 -33 -23.5 -56.5t-56.5 -23.5h-120q-33 0 -56.5 23.5t-23.5 56.5v120q0 33 23.5 56.5t56.5 23.5h120q33 0 56.5 -23.5t23.5 -56.5v-120zM570 80v120q0 8 -6 14t-14 6h-120q-8 0 -14 -6t-6 -14v-120q0 -8 6 -14t14 -6h120q8 0 14 6t6 14zM500 640l-331 -640h-69 l332 640h68zM250 440q0 -33 -23.5 -56.5t-56.5 -23.5h-120q-33 0 -56.5 23.5t-23.5 56.5v120q0 33 23.5 56.5t56.5 23.5h120q33 0 56.5 -23.5t23.5 -56.5v-120zM190 440v120q0 8 -6 14t-14 6h-120q-8 0 -14 -6t-6 -14v-120q0 -8 6 -14t14 -6h120q8 0 14 6t6 14z" />
<glyph horiz-adv-x="370" d="M127 320h-57v240h57v-240zM300 320h-57v240h57v-240z" />
<glyph horiz-adv-x="420" d="M166 320h-60l-76 240h59zM360 320h-60l-77 240h59z" />
<glyph horiz-adv-x="420" d="M390 560l-76 -240h-60l77 240h59zM197 560l-77 -240h-60l78 240h59z" />
<glyph horiz-adv-x="230" d="M170 320h-60l-80 240h59z" />
<glyph horiz-adv-x="230" d="M200 560l-80 -240h-60l81 240h59z" />
<glyph horiz-adv-x="200" d="M130 320h-60v240h60v-240z" />
<glyph horiz-adv-x="670" d="M610 80q0 -33 -23.5 -56.5t-56.5 -23.5h-161v-160h-60v380h-179v-220h-60v480h219q33 0 56.5 -23.5t23.5 -56.5v-120h161q33 0 56.5 -23.5t23.5 -56.5v-120zM550 80v120q0 8 -6 14t-14 6h-161v-159h161q8 0 14 5.5t6 13.5zM309 280v120q0 8 -6 14t-14 6h-159v-140h179z " />
<glyph horiz-adv-x="600" d="M535 640l-331 -640h-68l300 580h-341v60h440z" />
<glyph horiz-adv-x="580" d="M530 0h-263q-31 0 -53.5 22.5t-22.5 53.5v173h57v-173q0 -7 6 -12.5t13 -5.5h206v342h57v-400zM389 151h-57v173q0 7 -6 12.5t-13 5.5h-206v-342h-57v400h263q31 0 53.5 -22.5t22.5 -53.5v-173z" />
<glyph horiz-adv-x="710" d="M610 0h-303q-31 0 -53.5 22.5t-22.5 53.5v253h57v-253q0 -7 6 -12.5t13 -5.5h246v422h57v-480zM449 151h-57v253q0 7 -6 12.5t-13 5.5h-246v-422h-57v480h303q31 0 53.5 -22.5t22.5 -53.5v-253z" />
<glyph horiz-adv-x="580" d="M530 240h-263q-31 0 -53.5 22.5t-22.5 53.5v173h57v-173q0 -7 6 -12.5t13 -5.5h206v342h57v-400zM389 391h-57v173q0 7 -6 12.5t-13 5.5h-206v-342h-57v400h263q31 0 53.5 -22.5t22.5 -53.5v-173z" />
<glyph horiz-adv-x="550" d="M490 160q0 -67 -47 -113.5t-113 -46.5h-110q-66 0 -113 46.5t-47 113.5v320q0 67 47 113.5t113 46.5h234v-60h-234q-41 0 -70.5 -29.5t-29.5 -70.5v-100h210q66 0 113 -46.5t47 -113.5v-60zM429 160v60q0 42 -29 71t-70 29h-209v-160q0 -42 29 -71t70 -29h110q41 0 70 29 t29 71z" />
<glyph horiz-adv-x="600" d="M515 160q0 -67 -47 -113.5t-113 -46.5h-110q-66 0 -113 46.5t-47 113.5v320q0 67 47 113.5t113 46.5h234v-60h-234q-41 0 -70.5 -29.5t-29.5 -70.5v-100h210q66 0 113 -46.5t47 -113.5v-60zM454 160v60q0 42 -29 71t-70 29h-209v-160q0 -42 29 -71t70 -29h110q41 0 70 29 t29 71z" />
<glyph horiz-adv-x="330" d="M300 400l-205 -400h-65l206 400h64z" />
<glyph horiz-adv-x="380" d="M350 480l-255 -480h-65l256 480h64z" />
<glyph horiz-adv-x="330" d="M300 640l-205 -400h-65l206 400h64z" />
<glyph horiz-adv-x="600" d="M500 640l-332 -640h-68l333 640h67z" />
<glyph horiz-adv-x="420" d="M370 0h-320v57h21q26 0 45 19t19 45v58h-85v58h85v11q0 63 46.5 107.5t110.5 44.5h46v-57h-46q-40 0 -70 -28t-30 -67v-11h145v-58h-145v-62q0 -31 -21 -60h199v-57z" />
<glyph horiz-adv-x="460" d="M410 0h-359v60h13q28 0 47.5 19.5t19.5 47.5v92h-81v61h81v40q0 67 47 113.5t113 46.5h80v-60h-80q-41 0 -70 -29.5t-29 -70.5v-40h178v-61h-178v-96q0 -32 -23 -63h241v-60z" />
<glyph horiz-adv-x="420" d="M370 240h-320v57h21q26 0 45 19t19 45v58h-85v58h85v11q0 63 46.5 107.5t110.5 44.5h46v-57h-46q-40 0 -70 -28t-30 -67v-11h145v-58h-145v-62q0 -31 -21 -60h199v-57z" />
<glyph horiz-adv-x="600" d="M480 160h-359v60h13q28 0 47.5 19.5t19.5 47.5v92h-81v61h81v40q0 67 47 113.5t113 46.5h80v-60h-80q-41 0 -70 -29.5t-29 -70.5v-40h178v-61h-178v-96q0 -32 -23 -63h241v-60z" />
<glyph horiz-adv-x="600" d="M490 160q0 -67 -47 -113.5t-113 -46.5h-220v60h220q41 0 70.5 29.5t29.5 70.5v71q0 41 -29.5 70.5t-70.5 29.5h-220v60h220q13 0 19 -1v170q0 8 -6 14t-14 6h-219v60h219q33 0 56.5 -23.5t23.5 -56.5v-190q37 -21 59 -58t22 -81v-71z" />
<glyph horiz-adv-x="600" d="M500 456q0 -67 -47 -113.5t-113 -46.5h-80q-41 0 -70.5 -29.5t-29.5 -70.5v-135h324v-61h-384v196q0 67 47 113.5t113 46.5h80q41 0 70 29.5t29 70.5v24q0 41 -29 70.5t-70 29.5h-229v60h229q66 0 113 -46.5t47 -113.5v-24z" />
<glyph horiz-adv-x="510" d="M289 0h-69q-73 40 -116.5 116.5t-43.5 168.5v195h60v-198q0 -77 37 -141t98 -95q61 31 98 95t37 141v198h60v-195q0 -92 -44 -168t-117 -117z" />
<glyph horiz-adv-x="420" d="M238 -80h-57v80h-141v57h141v126h-141v57h108l-106 160h69l99 -149l99 149h68l-105 -160h108v-57h-142v-126h142v-57h-142v-80z" />
<glyph horiz-adv-x="440" d="M250 0h-60v100h-150v60h150v100h-150v60h115l-107 160h72l100 -149l99 149h72l-106 -160h115v-60h-150v-100h150v-60h-150v-100z" />
<glyph horiz-adv-x="420" d="M238 160h-57v80h-141v57h141v126h-141v57h108l-106 160h69l99 -149l99 149h68l-105 -160h108v-57h-142v-126h142v-57h-142v-80z" />
<glyph horiz-adv-x="510" d="M450 160q0 -67 -47 -113.5t-113 -46.5h-70q-66 0 -113 46.5t-47 113.5v160q0 67 47 113.5t113 46.5h70q66 0 113 -46.5t47 -113.5v-160zM389 160v160q0 41 -29 70.5t-70 29.5h-70q-41 0 -70 -29.5t-29 -70.5v-160q0 -41 29 -70.5t70 -29.5h70q41 0 70 29.5t29 70.5z" />
<glyph horiz-adv-x="600" d="M515 160q0 -67 -47 -113.5t-113 -46.5h-110q-66 0 -113 46.5t-47 113.5v320q0 67 47 113.5t113 46.5h110q66 0 113 -46.5t47 -113.5v-320zM454 160v320q0 41 -29 70.5t-70 29.5h-110q-41 0 -70.5 -29.5t-29.5 -70.5v-320q0 -41 29.5 -70.5t70.5 -29.5h110q41 0 70 29.5 t29 70.5z" />
</font>
</defs>
</svg>
